<?xml version="1.0" encoding="UTF-8"?>
<svg id="Layer_2" data-name="Layer 2" xmlns="http://www.w3.org/2000/svg" viewBox="0 0 305.54 325.99">
  <defs>
    <style>
      .cls-1 {
        stroke-width: 0px;
      }
    </style>
  </defs>
  <g id="DALA_HORSE_ICONS_SET" data-name="DALA HORSE ICONS SET">
    <g id="icons">
      <g id="DALA_HORSE_WITH_HEART" data-name="DALA HORSE WITH HEART">
        <g>
          <path class="cls-1" d="m106.6,33.26c-.37.6-1.01,1-1.71,1.06-1.68.16-6.36,1.18-7.81,3.97-1.78,3.4.37,7.72.39,7.76.35.7.32,1.53-.09,2.2-.41.67-1.13,1.08-1.92,1.08-.99,0-9.78.31-10.18,8.62-.12,2.46.51,4.35,1.92,5.78,3.29,3.32,9.67,3.11,9.74,3.11.69-.01,1.36.27,1.8.79.45.53.63,1.23.49,1.9-.03.16-.76,4.48,3.36,8.06,3.56,3.1,9.4,2.01,9.46,1.99.66-.13,1.35.04,1.87.47.52.43.82,1.07.82,1.74,0,.23.1,5.81,4.76,8.89,4.3,2.84,9.34-1.2,9.56-1.38.59-.48,1.39-.64,2.12-.4.73.24,1.29.82,1.48,1.56.09.33,2.35,8.17,10.05,7.2,2.01-.25,3.35-.98,4.1-2.23,1.6-2.68.35-7.38-.27-8.96-.23-.58-.21-1.22.06-1.78.27-.56.75-.99,1.34-1.18.03,0,3.39-1.15,4.63-3.61.85-1.69-1.02-4.48-1.56-5.13-.57-.69-.69-1.65-.29-2.45.4-.8,1.23-1.3,2.13-1.24,1.48.07,4.46-.21,5.92-1.29-2.17-3.77-4.55-7.63-7.16-11.48-1.25,2.3-3.15,4.24-4.96,6.09-4.9,5-9.53,9.73-3.5,21.76.24.36.39.79.39,1.26,0,1.24-1.01,2.25-2.25,2.25h-.02c-.49,0-.99-.16-1.4-.48-.9-.71-2.28-1.71-4.03-2.98-4.06-2.95-9.63-6.98-15.17-11.71-9.69-8.28-19.49-18-18.62-27.31.72-7.67,5.53-9.89,9.77-11.84,4-1.84,7.46-3.46,8.39-9.66-2.54-1.67-5.18-3.19-7.9-4.52-2.4-.55-4.96.39-6.13,2.37-1.17,2.08.06,6.38.59,7.72.26.66.19,1.4-.18,2.01Z"/>
          <path class="cls-1" d="m35.52,85c4-.12,7.65-.01,10.96.31.04,0,.09-.01.13-.01h.03c5,.07,9.54.29,13.67.63,3.03-12.06,4.92-23.16,6.08-32.91-5.57,9.86-15.5,23.54-30.87,31.97Z"/>
          <path class="cls-1" d="m4.3,101.7c6.37,10.97,14.54,13.58,22.21,11.38-2.59-13.79-13.33-26.72-21.17-34.84-6.06,7.32-7.7,12-1.05,23.46Z"/>
          <path class="cls-1" d="m123.17,50.92c-4.36,3.47-7.79,6.22-7.23,12.72.01.14,0,.28,0,.41,2.22,2.23,4.62,4.39,6.96,6.4.4-5.75,3.83-9.17,6.94-12.25,4.28-4.25,8.32-8.26,6.91-18.54-1.2-1.25-2.43-2.48-3.68-3.67-.95,7.76-5.83,11.69-9.89,14.94Z"/>
          <path class="cls-1" d="m63.75,48.31l-1.87-1.05c-1.08-.61-1.47-1.98-.86-3.06.61-1.08,1.98-1.47,3.06-.87l1.71.95c.43-.9.79-1.7,1.08-2.36l-2.98-1.67c-1.08-.61-1.47-1.98-.86-3.06.61-1.08,1.98-1.47,3.06-.87l1.67.94c.45-8.61.33-15.36.11-19.81-1.15-.23-2.42-.96-4.26-2.53C59.11,11.1,42.97,0,39.33,0s1.21,31.08,1.21,31.08c0,0,2.49,13.75-3.87,18.73-4.31,3.61-19.98,16.37-28.31,25.06,3.13,3.23,6.75,7.24,10.18,11.8,24.44-5.54,38.8-26.34,45.22-38.36Z"/>
          <path class="cls-1" d="m132.99,61.39c-3.71,3.69-6.4,6.35-5.48,12.36.03.19.03.37,0,.55,3.17,2.54,6.25,4.82,8.88,6.75-2.49-10.08,2.7-15.38,7.03-19.8,2.5-2.55,4.58-4.69,5.03-7.45-2.2-3.03-4.54-6.03-7.01-8.92-.44,8.49-4.8,12.88-8.45,16.51Z"/>
          <path class="cls-1" d="m106.55,47.61c-.34,3.62,1.82,7.68,5.09,11.72,1.04-5.79,5.08-9.01,8.72-11.93,4.71-3.76,8.79-7.03,8.35-15.33-1.46-1.24-2.94-2.43-4.47-3.57-1.79,6.89-6.58,9.11-10.52,10.93-3.89,1.79-6.7,3.09-7.17,8.18Z"/>
          <path class="cls-1" d="m21.47,90.81c4.2,6.26,7.76,13.33,9.3,20.73,5.99-2.25,8.76-3.31,23.24-9.01.56-.16,1.11-.27,1.65-.32,1.05-3.29,2.02-6.53,2.91-9.71-8.38-3.05-19.82-4.23-37.1-1.7Z"/>
        </g>
        <path class="cls-1" d="m305.52,204.52c0-1.91,0-3.56,0-4.86,0-15.45.12-61.81-33.85-84.38-.07-.04-.13-.09-.2-.13-.51-.34-1.04-.67-1.57-1-.14-.09-.28-.17-.42-.26-.51-.31-1.02-.62-1.54-.91-.16-.09-.32-.18-.47-.27-.53-.3-1.06-.59-1.61-.88-.03-.02-.06-.03-.09-.05-1.12-.59-2.29-1.15-3.48-1.69-.21-.1-.42-.2-.63-.29-.45-.2-.92-.39-1.38-.59-.34-.14-.68-.29-1.03-.42-.44-.18-.88-.35-1.33-.51-.39-.15-.78-.29-1.18-.43-.43-.15-.87-.31-1.31-.46-.43-.15-.88-.29-1.32-.43-.42-.13-.84-.27-1.27-.4-.54-.16-1.09-.31-1.64-.46-8.14-2.25-17.5-3.5-28.27-3.44-.65,0-1.27,0-1.9.01h0c-.13,0-.25,0-.37,0-.73,0-1.44,0-2.14.02-.1,0-.19,0-.29,0-.8,0-1.59.01-2.36.02-.09,0-.19,0-.28,0-.72,0-1.43.01-2.13.02-.14,0-.29,0-.43,0-5.24.05-9.78.11-13.76.17-.11,0-.21,0-.32,0-.56,0-1.12.02-1.66.03-.16,0-.32,0-.47,0-.52,0-1.03.02-1.52.03-.12,0-.24,0-.36,0-.58.01-1.15.02-1.71.04h-.09c-1.18.03-2.29.05-3.34.08-.14,0-.28,0-.41,0-.37,0-.74.02-1.09.03-.17,0-.34,0-.51.01-.3,0-.59.02-.88.03-.19,0-.38,0-.57.02-.3,0-.59.02-.88.03-.14,0-.28,0-.41.01-.37.01-.72.02-1.07.04-.13,0-.26,0-.39.01-.33.01-.66.02-.97.04-.14,0-.27,0-.41.01-.24,0-.48.02-.72.03-.14,0-.27,0-.4.02-.24,0-.47.02-.69.03-.12,0-.24,0-.36.01-.22,0-.45.02-.66.03-.08,0-.16,0-.23,0-1.83.08-3.38.16-4.74.24-.52-1.64-1.55-4.55-3.09-8.32h0c-2.3-5.65-5.73-13.28-10.27-21.6-1.38.87-3,1.33-4.46,1.57.78,1.88,1.23,4.29.06,6.6-1.27,2.51-3.53,4.09-5.2,4.97.71,2.65,1.42,7.24-.7,10.82-1.02,1.71-3.12,3.87-7.41,4.41-.66.08-1.29.12-1.91.12-6.3,0-10.12-4.17-11.97-7.83-2.85,1.52-7.7,3.11-12.38.02-4.46-2.95-5.99-7.42-6.51-10.18-2.78.12-7.37-.23-10.87-3.28-3.85-3.35-4.79-7.23-4.94-9.74-2.83-.25-7.52-1.16-10.68-4.34-2.33-2.34-3.42-5.43-3.24-9.18.4-8.31,6.66-11.64,11.59-12.6-.61-2.35-.96-5.75.7-8.93,1.87-3.6,5.96-5.19,8.7-5.88-.61-2.48-1.08-6.22.51-9.05.75-1.26,1.77-2.3,2.95-3.08-6-2.1-12.37-3.29-19.12-3.29-7.35-.19-11.2.95-13.8,1.79.25,4.94.41,12.85-.22,23.01l4.48,2.51c1.09.61,1.47,1.98.87,3.06-.41.74-1.18,1.15-1.96,1.15-.37,0-.75-.09-1.1-.29l-2.64-1.48c-.08.93-.16,1.87-.25,2.82l3.09,1.73c1.09.61,1.47,1.98.87,3.06-.41.74-1.18,1.15-1.96,1.15-.37,0-.75-.09-1.1-.29l-1.4-.78c-1.14,10.05-3.05,21.53-6.15,34.02,24.9,2.79,33.68,10.35,40.98,16.64,7.84,6.76,13.5,11.64,38.84,6.45.03,0,.05,0,.08,0,.08-.01.17-.02.25-.03.07,0,.13,0,.2,0,.08,0,.16.01.24.02.07,0,.13.02.2.03.08.02.15.04.22.07.06.02.13.04.19.07.07.03.14.07.2.11.06.03.11.06.17.1.06.05.12.1.18.15.05.04.1.09.15.13.05.05.1.12.15.18.04.05.09.11.12.17.04.06.07.13.11.2.04.07.07.14.1.21,0,.03.03.05.04.08.02.05.02.1.03.14.01.04.03.09.04.13,0,.03,0,.05,0,.08.01.08.02.16.02.24,0,.07,0,.14,0,.21,0,.08-.01.15-.02.23,0,.07-.02.14-.04.21-.02.07-.04.14-.06.21-.02.07-.05.14-.08.2-.03.06-.06.13-.1.19-.04.06-.07.12-.11.18-.04.06-.09.12-.14.17-.04.05-.09.11-.14.16-.05.05-.11.1-.17.14-.06.05-.12.09-.18.13-.06.04-.12.07-.19.1-.07.04-.14.07-.21.1-.03,0-.05.03-.08.04-15.38,5.24-26.8,7.33-35.65,7.33-16.59,0-24.16-7.34-32.01-14.95-4.45-4.32-8.97-8.69-15.43-11.89-.82,2.91-1.7,5.87-2.65,8.87,9.47,5.14,14.57,29.67,16.71,51.42h0c.16,1.63.31,3.26.43,4.85,0,0,0,0,0,0,.36,4.5.59,8.79.71,12.68,0,0,0,0,0,0,.05,1.82.08,3.54.09,5.16,0,0,0,0,0,0,0,.21,0,.43,0,.64,0,25.5,2.01,146.11,2.01,146.11,0,0,2.79,1.96,13.23,1.96h0c10.44,0,13.22-1.96,13.22-1.96,0,0,5.23-113.47,25.39-113.47.27,0,.56,0,.86.02.09,0,.19.01.28.02.22.01.44.03.67.04.12,0,.26.02.38.04.21.02.43.04.66.06.15.02.3.03.45.05.22.03.45.05.68.08.17.02.33.04.5.07.23.03.47.06.72.1.18.03.35.05.54.08.26.04.53.08.8.12.17.03.34.05.51.08.32.05.66.11.99.16.13.02.26.04.4.06.48.08.98.17,1.48.26,0,0,.01,0,.02,0,.51.09,1.03.18,1.57.28.06.01.13.02.2.04.49.09.99.18,1.5.28.04,0,.07.01.1.02,9.5,1.77,21.94,4.32,33.96,5.48.05,0,.11,0,.16.02.59.05,1.17.11,1.75.16.08,0,.16.01.24.02.58.05,1.15.09,1.72.13.03,0,.05,0,.08,0h0c1.94.13,3.85.23,5.73.27h0c.67.01,1.33.02,1.98.02.03,0,.06,0,.09,0,.85,0,1.7-.02,2.56-.04.23,0,.46-.01.69-.02.8-.03,1.61-.06,2.42-.11.08,0,.17,0,.25-.01.98-.06,1.96-.13,2.95-.21,0,0,.01,0,.02,0,11.92-.99,24.4-3.62,34.97-5.51.2-.04.39-.07.58-.1.51-.09,1.02-.18,1.53-.27.66-.11,1.31-.22,1.95-.33.31-.05.62-.1.92-.15.48-.08.96-.15,1.44-.22.27-.04.55-.08.82-.12.69-.1,1.38-.2,2.04-.28.17-.02.33-.04.5-.06.55-.07,1.09-.13,1.62-.19.2-.02.39-.04.58-.06.66-.07,1.3-.12,1.93-.17.07,0,.13,0,.2-.01.57-.04,1.12-.06,1.65-.08.15,0,.29,0,.44-.01.59-.01,1.16-.02,1.7,0,17.45.47,26.01,108.87,26.37,113.54,0,.1.01.17.01.17,0,0,2.78,1.74,13.22,1.74h0c10.44,0,13.22-1.96,13.22-1.96v-119.5h-.02Zm-84.22-36.06c-5.79,8.65-28.44,21.92-28.96,21.92-.59,0-22.9-13.27-28.69-21.92-5.4-8.07-6.49-17.72-2.9-25.82,2.8-6.33,8.09-10.65,14.14-11.56.95-.14,1.91-.22,2.85-.22,6.89,0,11.86,7.18,14.73,10.2,2.87-3.03,7.84-10.2,14.73-10.2.94,0,1.9.07,2.85.22,6.05.91,11.34,5.24,14.14,11.56,3.59,8.1,2.5,17.76-2.9,25.82Z"/>
      </g>
    </g>
  </g>
</svg>