<?xml version="1.0" encoding="UTF-8"?>
<svg id="Layer_2" data-name="Layer 2" xmlns="http://www.w3.org/2000/svg" viewBox="0 0 305.54 325.98">
  <defs>
    <style>
      .cls-1 {
        stroke-width: 0px;
      }
    </style>
  </defs>
  <g id="DALA_HORSE_ICONS_SET" data-name="DALA HORSE ICONS SET">
    <g id="icons">
      <g id="DALA_HORSE_7" data-name="DALA HORSE 7">
        <path class="cls-1" d="m180.23,145.06c5.58,0,10.03-3.46,13.21-7.16-2.74,1.43-5.9,2.45-9.4,2.45h0c-4.32,0-8.54-1.56-12.54-4.63-3.78-2.9-5.91-6.56-6.38-10.87-.78,2.71-1.14,5.44-.78,8.01.53,3.79,2.57,6.75,6.22,9.05,3.34,2.1,6.59,3.16,9.67,3.16Z"/>
        <path class="cls-1" d="m85.33,173.76c1.24-.06,2.35-.25,3.2-.54,2.58-.9,3.76-2.84,4.29-4.3.23-.62.72-1.12,1.34-1.35.62-.23,1.32-.17,1.89.16,2.42,1.39,6.7,2.36,9.73,2.21,1.28-.06,2.5-.29,3.63-.69,3.14-1.09,5.21-3.31,5.69-6.11.13-.75.63-1.39,1.33-1.69.7-.3,1.5-.23,2.14.2,3.07,2.05,6.75,3.09,10.38,2.92,1.42-.07,2.79-.32,4.05-.76,3.94-1.37,6.38-4.35,6.52-7.98.03-.85.54-1.61,1.32-1.96.78-.35,1.68-.23,2.35.3,3.76,3.06,8.67,4.68,13.48,4.45,1.64-.08,3.22-.38,4.68-.88,4.34-1.5,7.17-4.78,7.59-8.76,0-.14.04-1.07.06-1.83.01-.38.03-.71.03-.91-.29-.17-.59-.34-.88-.52-4.15-2.61-6.79-6.05-7.88-10.25-3.2-1.71-6.87-2.57-10.37-2.39-1.64.08-3.22.38-4.68.88-4.92,1.71-7.85,5.64-7.64,10.26.04.86-.42,1.67-1.18,2.08-.76.41-1.68.35-2.38-.15-3.11-2.23-7.05-3.42-10.82-3.23-1.41.07-2.77.32-4.04.76-3.12,1.08-5.31,3.13-6.17,5.77-.18.56-.3,1.16-.36,1.78-.07.77-.53,1.45-1.21,1.8-.69.35-1.51.33-2.17-.06-2.59-1.53-5.62-2.29-8.55-2.15-1.27.06-2.49.29-3.63.69-3.06,1.06-5.13,3.22-5.66,5.94-.13.67-.57,1.25-1.18,1.56-.61.31-1.33.33-1.95.05-1.9-.86-3.96-1.25-5.96-1.16-1.09.05-2.14.25-3.1.58-.73.25-1.39.59-1.98.98.36,4.5.59,8.79.71,12.68,1.8,1.34,4.04,1.81,7.39,1.65Zm67.27-32.71s.11,0,.13,0c2.74.07,4.9,2.35,4.83,5.09-.07,2.71-2.25,4.83-4.96,4.83-.02,0-.11,0-.13,0-2.73-.07-4.9-2.35-4.83-5.09.07-2.71,2.25-4.83,4.96-4.83Zm-26.5,8.88c2.35,0,4.25,1.91,4.25,4.25s-1.91,4.25-4.25,4.25-4.25-1.91-4.25-4.25,1.91-4.25,4.25-4.25Zm-22.08,7.46c1.95,0,3.54,1.59,3.54,3.54s-1.59,3.54-3.54,3.54-3.54-1.59-3.54-3.54,1.59-3.54,3.54-3.54Zm-22.33,9.04c0-1.56,1.27-2.83,2.83-2.83s2.84,1.27,2.84,2.83-1.27,2.84-2.84,2.84-2.83-1.27-2.83-2.84Z"/>
        <path class="cls-1" d="m235.56,103.24c1.71,2.99,5.28,7.1,12.28,7.93-.41-.42-.77-.88-1.07-1.36-1.1-1.77-1.23-3.57-1.07-5.03-3.2-.67-6.58-1.18-10.14-1.54Z"/>
        <path class="cls-1" d="m285.36,127.55c-.84.05-1.63.07-2.36.07,1.35,1.04,2.96,2.11,4.8,3.04-.78-1.05-1.59-2.1-2.45-3.11Z"/>
        <path class="cls-1" d="m214.14,108c3.42-1.26,5.64-3.64,6.87-5.33-3.72.02-7.15.05-10.32.09-.13,1.51-.62,3.37-2.18,4.95-.4.41-.85.77-1.34,1.09,2.52.25,4.84-.01,6.97-.8Z"/>
        <path class="cls-1" d="m240.59,142.01c-.08.09-.15.17-.24.26-3.42,3.49-8.25,5.26-14.38,5.26-1.11,0-2.27-.06-3.46-.18-8.75-.86-14.09-4.07-17.34-7.68,2.14,5.98,6.8,12.61,16.96,13.3,6.38.43,11.33-1.05,14.64-4.4,2-2.02,3.14-4.44,3.81-6.56Z"/>
        <path class="cls-1" d="m270.28,145.22c-2.62.9-5.21,1.36-7.7,1.36-4.31,0-7.91-1.32-10.87-3.2,3.84,3.97,9.32,7.97,15.83,7.97,2.12,0,4.27-.43,6.41-1.26,3.01-1.18,4.87-2.99,5.68-5.53.7-2.19.57-4.69.05-7.13-1.55,3.56-4.7,6.19-9.4,7.8Z"/>
        <path class="cls-1" d="m214.75,181.32c4.38-.56,8.3-2.74,10.78-5.96.84-1.09,1.48-2.28,1.91-3.52.98-2.85.72-5.8-.73-8.32-1.68-2.91-4.81-5.01-8.6-5.76-1.04-.2-2.11-.31-3.18-.31-5.1,0-10.07,2.34-12.96,6.11-.84,1.09-1.48,2.28-1.9,3.51-1.08,3.13-.69,6.31,1.1,8.96.64.95,1.45,1.81,2.39,2.54.69.54,1.01,1.43.81,2.29s-.88,1.52-1.74,1.69c-3.21.66-6.1,2.41-7.93,4.8-.7.91-1.24,1.9-1.59,2.94-1.22,3.54-.09,7.18,2.95,9.52.7.54,1.02,1.45.81,2.31-.21.86-.9,1.52-1.78,1.68-2.83.52-5.37,2.03-6.99,4.13-.6.78-1.06,1.62-1.36,2.51-.77,2.23-.51,4.39.75,6.25.27.4.6.79.97,1.16.18.18.32.39.43.61.67.01,1.33.02,1.98.02,3.9,0,7.93-.26,12.01-.69.62-.51,1.19-1.07,1.67-1.7.6-.78,1.06-1.62,1.36-2.51.96-2.8.21-5.66-2.01-7.64-.66-.59-.91-1.51-.65-2.35.26-.84.99-1.45,1.87-1.56,3.68-.45,6.97-2.27,9.05-4.98.7-.92,1.24-1.9,1.59-2.94,1.12-3.24.27-6.58-2.26-8.94-.64-.6-.88-1.5-.61-2.33.27-.83.99-1.43,1.85-1.54Zm-18.14,35.23h-.09c-.95-.03-1.83-.42-2.48-1.1-.65-.69-1-1.58-.97-2.53.05-1.94,1.61-3.45,3.54-3.45.02,0,.08,0,.09,0,1.95.05,3.5,1.68,3.45,3.63-.05,1.94-1.61,3.45-3.54,3.45Zm7.75-19.79s-.1,0-.11,0c-2.34-.06-4.2-2.02-4.14-4.36.06-2.32,1.93-4.14,4.25-4.14.01,0,.1,0,.11,0,2.34.06,4.2,2.02,4.14,4.36-.06,2.32-1.93,4.14-4.25,4.14Zm4.54-26.55c.07-2.71,2.25-4.83,4.96-4.83.02,0,.11,0,.13,0,2.74.07,4.9,2.35,4.83,5.09-.07,2.71-2.25,4.83-4.96,4.83-.02,0-.11,0-.13,0-2.73-.07-4.9-2.35-4.83-5.09Z"/>
        <path class="cls-1" d="m305.51,199.66c0-11.39.07-39.59-13.51-62.67-3.37-.8-6.34-2.2-8.81-3.74,1.29,3.97,2.02,8.57.72,12.65-1.23,3.86-4.03,6.68-8.32,8.36-2.66,1.04-5.37,1.57-8.05,1.57-10.45,0-18.29-7.84-22.45-13.22-.8,2.85-2.3,6.25-5.11,9.1-3.2,3.23-7.45,5.11-12.63,5.64,1.3,1.13,2.4,2.44,3.25,3.91,2.11,3.67,2.5,7.94,1.09,12.03-.59,1.7-1.46,3.31-2.59,4.79-2.47,3.22-6.02,5.62-10.07,6.88,1.84,3.18,2.24,7,.99,10.62-.51,1.49-1.28,2.91-2.28,4.21-2.07,2.71-5.02,4.75-8.38,5.87,1.58,2.82,1.9,6.17.79,9.39-.23.67-.52,1.33-.86,1.96,16.96-2.38,33.76-6.76,43.43-6.5,17.45.47,26.01,108.87,26.37,113.54,0,.1.01.18.01.18,0,0,2.78,1.74,13.22,1.74s13.21-1.96,13.21-1.96v-119.5h-.02c0-1.91,0-3.56,0-4.86Z"/>
        <path class="cls-1" d="m250.15,105.81c0,.56.12,1.1.44,1.62.91,1.46,3.31,2.56,6.93,3.16,1.07.18,1.86,1.09,1.88,2.17.03,1.08-.72,2.03-1.78,2.25-2.66.57-5.08.82-7.27.82-10.83,0-16.24-6.14-18.71-10.48l1.09,9.2c.14,1.23-.74,2.35-1.97,2.5-.09.01-.18.02-.27.02-1.12,0-2.1-.84-2.23-1.99l-.98-8.24-2.08,8.04c-.26,1.01-1.18,1.69-2.18,1.69-.19,0-.38-.02-.56-.07-1.2-.31-1.93-1.54-1.62-2.74l1.48-5.75c-1.62,1.58-3.78,3.15-6.56,4.19-2.14.8-4.41,1.2-6.8,1.2-3.79,0-7.86-1-12.2-3.01-.98-.46-1.5-1.54-1.24-2.59.26-1.05,1.23-1.77,2.31-1.7,3.67.21,6.24-.33,7.46-1.55.49-.5.73-1.1.84-1.73-13.46.16-21.54.4-27.05.64-3.82,4.45-10.02,12.86-9.6,20.3.19,3.36,1.73,6.11,4.72,8.4,3.2,2.46,6.5,3.7,9.81,3.7h0c9.41,0,16.41-9.86,16.48-9.96.43-.61,1.12-.96,1.84-.96.23,0,.47.04.7.11.94.31,1.57,1.2,1.55,2.19,0,.55.03,13.84,18.35,15.64,6.31.62,11.11-.64,14.15-3.72,3.79-3.84,3.76-9.38,3.75-9.43-.01-1.08.74-2.02,1.8-2.24,1.05-.22,2.12.34,2.53,1.34.05.13,5.69,13.26,17.39,13.26,1.99,0,4.09-.37,6.24-1.11,3.59-1.23,5.9-3.12,6.88-5.62,1.71-4.4-1.03-9.54-1.06-9.59-.44-.8-.34-1.8.24-2.5.58-.71,1.53-1,2.4-.72,0,0,1.41.4,3.96.54-7.68-7.6-17.78-13.77-31.08-17.26Zm-66.67,23.62c-3.93,0-7.12-3.2-7.12-7.12s3.2-7.12,7.12-7.12,7.12,3.2,7.12,7.12-3.2,7.12-7.12,7.12Zm39.25,7.5c-3.93,0-7.12-3.2-7.12-7.12s3.2-7.12,7.12-7.12,7.12,3.2,7.12,7.12-3.2,7.12-7.12,7.12Zm39-2.25c-3.93,0-7.12-3.2-7.12-7.12s3.2-7.12,7.12-7.12,7.12,3.2,7.12,7.12-3.2,7.12-7.12,7.12Z"/>
        <path class="cls-1" d="m152.87,71.08c1.48.07,4.45-.21,5.92-1.29-2.17-3.77-4.56-7.63-7.16-11.48-1.26,2.3-3.15,4.24-4.97,6.09-4.9,5-9.53,9.73-3.5,21.76.24.36.38.79.38,1.26,0,1.24-1.01,2.25-2.25,2.25h-.02c-.49,0-.99-.16-1.4-.48-.9-.71-2.28-1.71-4.03-2.98-4.06-2.95-9.63-6.98-15.17-11.71-9.7-8.28-19.49-18-18.62-27.31.72-7.67,5.53-9.89,9.77-11.84,4-1.84,7.46-3.46,8.39-9.66-2.54-1.67-5.18-3.19-7.9-4.52-2.4-.55-4.96.39-6.13,2.37-1.17,2.08.06,6.38.59,7.72.26.66.19,1.4-.18,2.01-.37.6-1.01,1-1.71,1.06-1.68.16-6.35,1.18-7.81,3.97-1.78,3.4.37,7.72.39,7.76.35.7.32,1.53-.09,2.2-.41.67-1.13,1.08-1.91,1.08-.99,0-9.78.31-10.18,8.62-.12,2.46.51,4.35,1.92,5.78,3.29,3.32,9.67,3.11,9.74,3.11.69-.01,1.36.26,1.8.79.45.53.63,1.23.49,1.9-.03.16-.76,4.48,3.36,8.07,3.56,3.1,9.4,2,9.46,1.99.66-.13,1.35.04,1.87.47.52.43.82,1.07.82,1.74,0,.23.1,5.81,4.76,8.89,4.3,2.84,9.34-1.2,9.56-1.38.59-.48,1.39-.64,2.12-.4.73.24,1.29.82,1.48,1.56.09.33,2.35,8.17,10.05,7.2,2.01-.25,3.36-.98,4.1-2.23,1.6-2.68.34-7.38-.27-8.96-.23-.58-.2-1.22.06-1.78.26-.56.75-.99,1.34-1.18.03,0,3.39-1.15,4.63-3.61.85-1.69-1.02-4.48-1.56-5.13-.57-.69-.69-1.65-.29-2.45.4-.8,1.23-1.3,2.13-1.25Z"/>
        <path class="cls-1" d="m66.39,53.03c-5.57,9.86-15.5,23.55-30.87,31.97,4-.12,7.65-.01,10.96.32.04,0,.09-.01.13-.01.01,0,.02,0,.03,0,5,.07,9.54.29,13.67.63,3.03-12.06,4.92-23.16,6.08-32.91Z"/>
        <path class="cls-1" d="m77.74,154.21c1.37-.48,2.84-.76,4.36-.83,1.88-.1,3.81.14,5.68.68,1.39-3.13,4.13-5.56,7.82-6.83,1.54-.54,3.19-.85,4.89-.93,2.81-.13,5.68.37,8.33,1.43,1.37-3.86,4.5-6.81,8.87-8.32,1.68-.58,3.46-.92,5.3-1.01,3.53-.17,7.19.61,10.44,2.17,1.13-4.93,4.9-9,10.32-10.88,1.87-.65,3.87-1.03,5.94-1.13,3.35-.16,6.81.43,10.02,1.68.36-13.32,13.14-27.67,13.72-28.32.08-.09.17-.16.25-.23-1.85-5.26-6.1-15.88-12.69-27.94-1.38.86-3,1.33-4.46,1.57.78,1.88,1.23,4.29.06,6.6-1.27,2.51-3.53,4.09-5.2,4.97.7,2.65,1.42,7.24-.71,10.82-1.02,1.71-3.12,3.87-7.41,4.41-.66.08-1.29.12-1.91.12-6.3,0-10.12-4.17-11.97-7.83-2.85,1.52-7.7,3.11-12.38.02-4.46-2.95-5.99-7.42-6.51-10.18-2.78.12-7.37-.23-10.87-3.28-3.85-3.35-4.79-7.23-4.94-9.74-2.83-.25-7.52-1.16-10.68-4.34-2.33-2.34-3.42-5.43-3.24-9.18.4-8.31,6.66-11.64,11.59-12.59-.61-2.35-.96-5.75.7-8.93,1.87-3.6,5.96-5.19,8.7-5.88-.61-2.48-1.08-6.22.51-9.05.75-1.26,1.77-2.3,2.95-3.08-6-2.1-12.37-3.29-19.12-3.29-7.35-.19-11.2.95-13.8,1.79.25,4.94.41,12.85-.22,23.01l4.48,2.51c1.08.61,1.47,1.98.86,3.06-.41.74-1.18,1.15-1.96,1.15-.37,0-.75-.09-1.1-.29l-2.64-1.48c-.08.93-.16,1.87-.25,2.82l3.09,1.73c1.08.61,1.47,1.98.86,3.06-.41.74-1.18,1.15-1.96,1.15-.37,0-.75-.09-1.1-.29l-1.4-.78c-1.14,10.05-3.05,21.53-6.15,34.02,24.9,2.79,33.68,10.35,40.98,16.64,7.84,6.76,13.5,11.64,38.84,6.45.03,0,.05,0,.08,0,.08-.01.17-.02.25-.03.07,0,.13,0,.2,0,.08,0,.16.01.24.02.07,0,.13.02.2.03.08.02.15.04.22.07.06.02.13.04.19.07.07.03.14.07.21.11.06.03.11.07.17.1.06.05.12.1.18.15.05.04.1.09.14.13.05.06.1.12.15.18.04.05.09.11.12.17.04.06.07.13.11.2.04.07.07.14.1.21.01.03.03.05.04.08.02.05.02.09.03.14.01.04.03.09.04.13,0,.03,0,.05,0,.08.01.08.02.16.03.24,0,.07,0,.14,0,.21,0,.08-.01.15-.02.23,0,.07-.02.14-.04.21-.02.07-.04.14-.06.21-.02.07-.04.14-.08.2-.03.07-.06.13-.1.19-.04.06-.07.12-.11.18-.04.06-.09.12-.14.17-.05.05-.09.11-.14.16-.05.05-.11.1-.17.14-.06.05-.12.09-.18.13-.06.04-.12.07-.19.1-.07.04-.14.07-.21.1-.03,0-.05.03-.08.04-15.39,5.24-26.8,7.33-35.65,7.33-16.59,0-24.16-7.34-32.01-14.95-4.45-4.32-8.97-8.69-15.43-11.89-.82,2.91-1.7,5.87-2.65,8.87,9.47,5.14,14.57,29.67,16.71,51.42.31-.13.61-.27.94-.38Z"/>
        <path class="cls-1" d="m5.34,78.23c-6.06,7.32-7.7,12-1.05,23.46,6.37,10.97,14.54,13.58,22.21,11.38-2.59-13.79-13.33-26.72-21.17-34.84Z"/>
        <path class="cls-1" d="m182.46,209c.46-1.35,1.15-2.62,2.04-3.78,1.53-1.99,3.62-3.6,6.02-4.67-2.41-3.36-3.1-7.64-1.7-11.71.52-1.5,1.28-2.91,2.28-4.21,1.76-2.29,4.13-4.11,6.87-5.29-.19-.25-.38-.51-.56-.77-2.6-3.85-3.17-8.44-1.62-12.94.58-1.7,1.46-3.31,2.59-4.79,2.83-3.69,7-6.26,11.67-7.33-5.91-4.08-9-10.61-10.34-16.45-3.65,5.46-10.17,12.49-19.48,12.49h0c-2.22,0-4.48-.43-6.76-1.24-.03.85-.04,1.02-.05,1.13-.61,5.76-4.57,10.45-10.59,12.54-1.87.65-3.87,1.03-5.94,1.13-4.7.22-9.49-.99-13.57-3.4-1.34,3.8-4.5,6.85-8.83,8.35-1.67.58-3.45.92-5.3,1.01-3.61.17-7.28-.6-10.56-2.21-1.43,3.02-4.16,5.41-7.72,6.65-1.54.53-3.18.85-4.89.93-3.09.14-6.96-.57-10.01-1.77-1.37,2.25-3.44,3.92-5.99,4.81-1.27.44-2.77.71-4.46.79-.49.02-.99.04-1.49.04-1.98,0-4.04-.23-6.02-1.02,0,.21,0,.43,0,.64,0,25.5,2.01,146.11,2.01,146.11,0,0,2.79,1.96,13.23,1.96s13.22-1.96,13.22-1.96c0,0,5.23-113.47,25.39-113.47,8.04,0,30.8,6.25,51.25,7.68-1.52-2.81-1.77-6.04-.67-9.22Z"/>
        <path class="cls-1" d="m122.89,70.45c.4-5.75,3.83-9.17,6.94-12.25,4.28-4.25,8.32-8.26,6.92-18.54-1.2-1.25-2.43-2.48-3.68-3.67-.96,7.76-5.83,11.69-9.89,14.94-4.35,3.47-7.79,6.22-7.23,12.72.01.14,0,.28,0,.41,2.22,2.23,4.62,4.39,6.96,6.4Z"/>
        <path class="cls-1" d="m18.53,86.68c24.44-5.54,38.8-26.34,45.23-38.36l-1.87-1.05c-1.09-.61-1.47-1.98-.87-3.06.61-1.09,1.98-1.47,3.06-.87l1.7.95c.43-.9.79-1.69,1.08-2.36l-2.98-1.67c-1.09-.61-1.47-1.98-.87-3.06.61-1.08,1.98-1.47,3.06-.87l1.67.93c.46-8.61.33-15.36.11-19.81-1.15-.23-2.42-.96-4.26-2.53C59.11,11.1,42.97,0,39.33,0s1.21,31.08,1.21,31.08c0,0,2.49,13.75-3.87,18.73-4.31,3.61-19.98,16.37-28.31,25.06,3.13,3.23,6.75,7.24,10.18,11.81Z"/>
        <path class="cls-1" d="m148.46,53.81c-2.2-3.03-4.54-6.03-7.01-8.92-.43,8.49-4.8,12.88-8.46,16.51-3.71,3.69-6.4,6.35-5.47,12.36.03.19.03.37,0,.55,3.18,2.54,6.25,4.82,8.88,6.75-2.49-10.08,2.7-15.38,7.03-19.8,2.5-2.55,4.58-4.68,5.03-7.44Z"/>
        <path class="cls-1" d="m113.72,39.43c-3.89,1.79-6.7,3.09-7.17,8.18-.34,3.62,1.82,7.68,5.09,11.72,1.04-5.78,5.07-9.01,8.72-11.92,4.72-3.76,8.79-7.03,8.35-15.33-1.46-1.24-2.94-2.43-4.47-3.57-1.79,6.89-6.58,9.11-10.52,10.93Z"/>
        <path class="cls-1" d="m21.47,90.81c4.2,6.26,7.77,13.33,9.3,20.73,5.99-2.25,8.76-3.31,23.24-9.01.56-.17,1.11-.27,1.65-.32,1.05-3.29,2.02-6.53,2.91-9.71-8.38-3.06-19.82-4.23-37.1-1.7Z"/>
      </g>
    </g>
  </g>
</svg>