<?xml version="1.0" encoding="UTF-8"?>
<svg id="Layer_2" data-name="Layer 2" xmlns="http://www.w3.org/2000/svg" viewBox="0 0 305.54 325.99">
  <defs>
    <style>
      .cls-1 {
        stroke-width: 0px;
      }
    </style>
  </defs>
  <g id="DALA_HORSE_ICONS_SET" data-name="DALA HORSE ICONS SET">
    <g id="icons">
      <g id="DALA_HORSE_WITH_HEART" data-name="DALA HORSE WITH HEART">
        <g>
          <path class="cls-1" d="m198.95,33.26c.37.6,1.01,1,1.71,1.06,1.68.16,6.36,1.18,7.81,3.97,1.78,3.4-.37,7.72-.39,7.76-.35.7-.32,1.53.09,2.2.41.67,1.13,1.08,1.92,1.08.99,0,9.78.31,10.18,8.62.12,2.46-.51,4.35-1.92,5.78-3.29,3.32-9.67,3.11-9.74,3.11-.69-.01-1.36.27-1.8.79-.45.53-.63,1.23-.49,1.9.03.16.76,4.48-3.36,8.06-3.56,3.1-9.4,2.01-9.46,1.99-.66-.13-1.35.04-1.87.47-.52.43-.82,1.07-.82,1.74,0,.23-.1,5.81-4.76,8.89-4.3,2.84-9.34-1.2-9.56-1.38-.59-.48-1.39-.64-2.12-.4-.73.24-1.29.82-1.48,1.56-.09.33-2.35,8.17-10.05,7.2-2.01-.25-3.35-.98-4.1-2.23-1.6-2.68-.35-7.38.27-8.96.23-.58.21-1.22-.06-1.78-.27-.56-.75-.99-1.34-1.18-.03,0-3.39-1.15-4.63-3.61-.85-1.69,1.02-4.48,1.56-5.13.57-.69.69-1.65.29-2.45-.4-.8-1.23-1.3-2.13-1.24-1.48.07-4.46-.21-5.92-1.29,2.17-3.77,4.55-7.63,7.16-11.48,1.25,2.3,3.15,4.24,4.96,6.09,4.9,5,9.53,9.73,3.5,21.76-.24.36-.39.79-.39,1.26,0,1.24,1.01,2.25,2.25,2.25h.02c.49,0,.99-.16,1.4-.48.9-.71,2.28-1.71,4.03-2.98,4.06-2.95,9.63-6.98,15.17-11.71,9.69-8.28,19.49-18,18.62-27.31-.72-7.67-5.53-9.89-9.77-11.84-4-1.84-7.46-3.46-8.39-9.66,2.54-1.67,5.18-3.19,7.9-4.52,2.4-.55,4.96.39,6.13,2.37,1.17,2.08-.06,6.38-.59,7.72-.26.66-.19,1.4.18,2.01Z"/>
          <path class="cls-1" d="m270.03,85c-4-.12-7.65-.01-10.96.31-.04,0-.09-.01-.13-.01h-.03c-5,.07-9.54.29-13.67.63-3.03-12.06-4.92-23.16-6.08-32.91,5.57,9.86,15.5,23.54,30.87,31.97Z"/>
          <path class="cls-1" d="m301.25,101.7c-6.37,10.97-14.54,13.58-22.21,11.38,2.59-13.79,13.33-26.72,21.17-34.84,6.06,7.32,7.7,12,1.05,23.46Z"/>
          <path class="cls-1" d="m182.38,50.92c4.36,3.47,7.79,6.22,7.23,12.72-.01.14,0,.28,0,.41-2.22,2.23-4.62,4.39-6.96,6.4-.4-5.75-3.83-9.17-6.94-12.25-4.28-4.25-8.32-8.26-6.91-18.54,1.2-1.25,2.43-2.48,3.68-3.67.95,7.76,5.83,11.69,9.89,14.94Z"/>
          <path class="cls-1" d="m241.79,48.31l1.87-1.05c1.08-.61,1.47-1.98.86-3.06-.61-1.08-1.98-1.47-3.06-.87l-1.71.95c-.43-.9-.79-1.7-1.08-2.36l2.98-1.67c1.08-.61,1.47-1.98.86-3.06-.61-1.08-1.98-1.47-3.06-.87l-1.67.94c-.45-8.61-.33-15.36-.11-19.81,1.15-.23,2.42-.96,4.26-2.53C246.43,11.1,262.57,0,266.21,0s-1.21,31.08-1.21,31.08c0,0-2.49,13.75,3.87,18.73,4.31,3.61,19.98,16.37,28.31,25.06-3.13,3.23-6.75,7.24-10.18,11.8-24.44-5.54-38.8-26.34-45.22-38.36Z"/>
          <path class="cls-1" d="m172.55,61.39c3.71,3.69,6.4,6.35,5.48,12.36-.03.19-.03.37,0,.55-3.17,2.54-6.25,4.82-8.88,6.75,2.49-10.08-2.7-15.38-7.03-19.8-2.5-2.55-4.58-4.69-5.03-7.45,2.2-3.03,4.54-6.03,7.01-8.92.44,8.49,4.8,12.88,8.45,16.51Z"/>
          <path class="cls-1" d="m199,47.61c.34,3.62-1.82,7.68-5.09,11.72-1.04-5.79-5.08-9.01-8.72-11.93-4.71-3.76-8.79-7.03-8.35-15.33,1.46-1.24,2.94-2.43,4.47-3.57,1.79,6.89,6.58,9.11,10.52,10.93,3.89,1.79,6.7,3.09,7.17,8.18Z"/>
          <path class="cls-1" d="m284.07,90.81c-4.2,6.26-7.76,13.33-9.3,20.73-5.99-2.25-8.76-3.31-23.24-9.01-.56-.16-1.11-.27-1.65-.32-1.05-3.29-2.02-6.53-2.91-9.71,8.38-3.05,19.82-4.23,37.1-1.7Z"/>
        </g>
        <path class="cls-1" d="m0,204.52v119.5s2.78,1.96,13.22,1.96h0c10.44,0,13.22-1.74,13.22-1.74,0,0,0-.07.01-.17.36-4.67,8.92-113.08,26.37-113.54.54-.01,1.12,0,1.7,0,.14,0,.29,0,.44.01.54.02,1.09.04,1.65.08.07,0,.13,0,.2.01.62.04,1.27.1,1.93.17.19.02.39.04.58.06.53.06,1.07.12,1.62.19.17.02.33.04.5.06.67.09,1.35.18,2.04.28.27.04.55.08.82.12.47.07.95.15,1.44.22.31.05.61.1.92.15.64.11,1.29.22,1.95.33.5.09,1.01.18,1.53.27.19.03.39.07.58.1,10.57,1.89,23.06,4.51,34.97,5.51,0,0,.01,0,.02,0,.99.08,1.97.15,2.95.21.08,0,.17,0,.25.01.81.05,1.62.08,2.42.11.23,0,.46.02.69.02.86.03,1.71.04,2.56.04.03,0,.06,0,.09,0,.66,0,1.32,0,1.98-.02h0c1.88-.04,3.8-.13,5.73-.27h0s.05,0,.08,0c.57-.04,1.15-.08,1.72-.13.08,0,.16-.01.24-.02.58-.05,1.17-.1,1.75-.16.05,0,.11-.01.16-.02,12.03-1.16,24.46-3.72,33.96-5.48.03,0,.07-.01.1-.02.51-.1,1.01-.19,1.5-.28.06-.01.13-.02.2-.04.53-.1,1.06-.19,1.57-.28,0,0,.02,0,.02,0,.51-.09,1-.18,1.48-.26.13-.02.26-.04.4-.06.34-.06.67-.11.99-.16.17-.03.34-.05.51-.08.27-.04.54-.08.8-.12.18-.03.36-.05.54-.08.24-.04.48-.07.72-.1.17-.02.34-.04.5-.07.23-.03.46-.06.68-.08.15-.02.3-.04.45-.05.23-.02.44-.04.66-.06.13-.01.26-.03.38-.04.23-.02.46-.03.67-.04.09,0,.19-.01.28-.02.3-.01.59-.02.86-.02,20.15,0,25.39,113.47,25.39,113.47,0,0,2.78,1.96,13.22,1.96h0c10.44,0,13.23-1.96,13.23-1.96,0,0,2.01-120.61,2.01-146.11,0-.21,0-.42,0-.64,0,0,0,0,0,0,0-1.62.04-3.34.09-5.16,0,0,0,0,0,0,.12-3.88.35-8.18.71-12.68,0,0,0,0,0,0,.13-1.59.27-3.21.43-4.85h0c2.14-21.75,7.24-46.28,16.71-51.42-.95-3-1.84-5.96-2.65-8.87-6.46,3.2-10.98,7.57-15.43,11.89-7.85,7.62-15.42,14.95-32.01,14.95-8.85,0-20.26-2.09-35.65-7.33-.03,0-.05-.03-.08-.04-.07-.03-.14-.06-.21-.1-.06-.03-.13-.06-.19-.1-.06-.04-.12-.08-.18-.13-.06-.04-.12-.09-.17-.14-.05-.05-.1-.1-.14-.16-.05-.05-.1-.11-.14-.17-.04-.06-.08-.12-.11-.18-.04-.06-.07-.13-.1-.19-.03-.07-.05-.13-.08-.2-.02-.07-.05-.14-.06-.21-.02-.07-.03-.14-.04-.21,0-.08-.02-.15-.02-.23,0-.07,0-.14,0-.21,0-.08,0-.16.02-.24,0-.03,0-.05,0-.08,0-.04.03-.09.04-.13.01-.05.02-.1.03-.14,0-.03.03-.05.04-.08.03-.07.06-.14.1-.21.03-.07.07-.13.11-.2.04-.06.08-.12.12-.17.05-.06.1-.12.15-.18.05-.05.1-.09.15-.13.06-.05.12-.1.18-.15.05-.04.11-.07.17-.1.07-.04.13-.08.21-.11.06-.03.12-.05.19-.07.07-.03.14-.05.22-.07.06-.02.13-.02.2-.03.08-.01.16-.02.24-.02.06,0,.13,0,.2,0,.08,0,.17.01.25.03.03,0,.05,0,.08,0,25.34,5.19,31.01.31,38.84-6.45,7.3-6.29,16.08-13.85,40.98-16.64-3.1-12.49-5.01-23.98-6.15-34.02l-1.4.78c-.35.2-.72.29-1.1.29-.79,0-1.55-.42-1.96-1.15-.61-1.08-.22-2.46.87-3.06l3.09-1.73c-.09-.96-.17-1.9-.25-2.82l-2.64,1.48c-.35.2-.72.29-1.1.29-.79,0-1.55-.42-1.96-1.15-.61-1.08-.22-2.46.87-3.06l4.48-2.51c-.63-10.17-.48-18.07-.22-23.01-2.6-.84-6.46-1.98-13.8-1.79-6.75,0-13.12,1.19-19.12,3.29,1.18.79,2.19,1.82,2.95,3.08,1.6,2.83,1.12,6.57.51,9.05,2.74.69,6.83,2.28,8.7,5.88,1.66,3.18,1.31,6.58.7,8.93,4.93.95,11.19,4.29,11.59,12.6.18,3.75-.91,6.83-3.24,9.18-3.16,3.18-7.85,4.09-10.68,4.34-.15,2.51-1.09,6.39-4.94,9.74-3.5,3.05-8.1,3.4-10.87,3.28-.52,2.76-2.04,7.23-6.51,10.18-4.68,3.1-9.53,1.5-12.38-.02-1.85,3.66-5.67,7.83-11.97,7.83-.61,0-1.25-.04-1.91-.12-4.29-.54-6.39-2.7-7.41-4.41-2.12-3.58-1.41-8.18-.7-10.82-1.67-.88-3.93-2.46-5.2-4.97-1.16-2.31-.72-4.72.06-6.6-1.46-.24-3.08-.71-4.46-1.57-4.54,8.32-7.97,15.95-10.27,21.61h0c-1.53,3.77-2.56,6.67-3.09,8.32-1.37-.08-2.92-.16-4.74-.24-.08,0-.16,0-.23,0-.22,0-.44-.02-.66-.03-.12,0-.24,0-.36-.01-.23,0-.46-.02-.69-.03-.13,0-.27,0-.4-.02-.24,0-.48-.02-.72-.03-.14,0-.27,0-.41-.01-.32-.01-.64-.02-.97-.04-.13,0-.26,0-.39-.01-.35-.01-.7-.02-1.07-.04-.13,0-.27,0-.41-.01-.29,0-.58-.02-.88-.03-.19,0-.38,0-.57-.02-.29,0-.58-.02-.88-.03-.17,0-.34,0-.51-.01-.36,0-.72-.02-1.09-.03-.14,0-.27,0-.41,0-1.06-.03-2.17-.05-3.34-.08h-.09c-.55-.01-1.12-.02-1.71-.04-.12,0-.24,0-.36,0-.5,0-1-.02-1.52-.03-.16,0-.32,0-.47,0-.54,0-1.1-.02-1.66-.03-.11,0-.21,0-.32,0-3.97-.06-8.52-.12-13.76-.17-.14,0-.29,0-.43,0-.7,0-1.4-.01-2.13-.02-.09,0-.19,0-.28,0-.77,0-1.56-.01-2.36-.02-.1,0-.19,0-.29,0-.7,0-1.42-.01-2.14-.02-.12,0-.24,0-.37,0h0c-.63,0-1.25,0-1.9-.01-10.77-.06-20.13,1.19-28.27,3.44-.55.15-1.1.3-1.64.46-.43.13-.85.27-1.27.4-.44.14-.88.28-1.32.43-.44.15-.88.3-1.31.46-.4.14-.79.29-1.18.43-.45.17-.89.34-1.33.51-.35.14-.69.28-1.03.42-.46.19-.93.38-1.38.59-.21.09-.42.2-.63.29-1.19.54-2.35,1.1-3.48,1.69-.03.02-.06.03-.09.05-.55.29-1.08.58-1.61.88-.16.09-.32.18-.47.27-.52.3-1.03.6-1.54.91-.14.08-.28.17-.42.26-.53.33-1.05.66-1.57,1-.07.04-.13.09-.2.13C-.1,137.86.03,184.22.03,199.66c0,1.3,0,2.95,0,4.86H0Zm81.34-61.88c2.8-6.33,8.09-10.65,14.14-11.56.96-.14,1.91-.22,2.85-.22,6.89,0,11.86,7.18,14.73,10.2,2.87-3.03,7.84-10.2,14.73-10.2.94,0,1.9.07,2.85.22,6.06.91,11.34,5.24,14.14,11.56,3.59,8.1,2.5,17.76-2.9,25.82-5.79,8.65-28.1,21.92-28.69,21.92-.53,0-23.17-13.27-28.96-21.92-5.4-8.07-6.49-17.72-2.9-25.82Z"/>
      </g>
    </g>
  </g>
</svg>