<?xml version="1.0" encoding="UTF-8"?>
<svg id="Layer_2" data-name="Layer 2" xmlns="http://www.w3.org/2000/svg" viewBox="0 0 305.54 325.98">
  <defs>
    <style>
      .cls-1 {
        stroke-width: 0px;
      }
    </style>
  </defs>
  <g id="DALA_HORSE_ICONS_SET" data-name="DALA HORSE ICONS SET">
    <g id="icons">
      <g id="DALA_HORSE_7" data-name="DALA HORSE 7">
        <path class="cls-1" d="m125.31,145.06c-5.58,0-10.03-3.46-13.21-7.16,2.74,1.43,5.9,2.45,9.4,2.45h0c4.32,0,8.54-1.56,12.54-4.63,3.78-2.9,5.91-6.56,6.38-10.87.78,2.71,1.14,5.44.78,8.01-.53,3.79-2.57,6.75-6.22,9.05-3.34,2.1-6.59,3.16-9.67,3.16Z"/>
        <path class="cls-1" d="m227.59,172.11c.12-3.89.35-8.18.71-12.68-.59-.39-1.25-.73-1.98-.98-.97-.34-2.01-.53-3.1-.58-2-.1-4.06.3-5.96,1.16-.62.28-1.34.26-1.95-.05-.61-.31-1.04-.89-1.18-1.56-.54-2.71-2.6-4.88-5.66-5.94-1.13-.39-2.35-.63-3.63-.69-2.93-.14-5.96.62-8.55,2.15-.67.39-1.49.42-2.17.06-.69-.35-1.14-1.04-1.21-1.8-.05-.62-.17-1.22-.36-1.78-.86-2.64-3.05-4.69-6.17-5.77-1.27-.44-2.63-.7-4.04-.76-3.77-.18-7.71,1-10.82,3.23-.7.5-1.63.56-2.38.15-.76-.41-1.21-1.22-1.18-2.08.21-4.62-2.72-8.55-7.64-10.26-1.46-.51-3.04-.8-4.68-.88-3.5-.17-7.17.69-10.37,2.39-1.1,4.2-3.74,7.65-7.88,10.25-.29.18-.59.35-.88.52,0,.21.02.53.03.91.03.76.06,1.69.06,1.83.42,3.98,3.26,7.26,7.59,8.76,1.46.51,3.04.8,4.68.88,4.81.23,9.72-1.39,13.48-4.45.66-.54,1.57-.65,2.35-.3.78.35,1.29,1.11,1.32,1.96.14,3.63,2.58,6.62,6.52,7.98,1.26.44,2.62.7,4.05.76,3.62.18,7.31-.86,10.38-2.92.63-.43,1.44-.5,2.14-.2.7.3,1.2.94,1.33,1.69.48,2.79,2.55,5.02,5.69,6.11,1.13.39,2.35.62,3.63.69,3.03.15,7.31-.83,9.73-2.21.58-.33,1.27-.38,1.89-.16.62.23,1.11.72,1.34,1.35.53,1.47,1.7,3.41,4.29,4.3.86.3,1.96.49,3.2.55,3.34.16,5.59-.31,7.39-1.65Zm-69.7-26.23c.07,2.73-2.1,5.02-4.83,5.09-.02,0-.11,0-.13,0-2.71,0-4.89-2.12-4.96-4.83-.07-2.73,2.1-5.02,4.83-5.09.02,0,.11,0,.13,0,2.71,0,4.89,2.12,4.96,4.83Zm25.79,8.29c0,2.35-1.91,4.25-4.25,4.25s-4.25-1.91-4.25-4.25,1.91-4.25,4.25-4.25,4.25,1.91,4.25,4.25Zm21.37,6.75c0,1.95-1.59,3.54-3.54,3.54s-3.54-1.59-3.54-3.54,1.59-3.54,3.54-3.54,3.54,1.59,3.54,3.54Zm15.96,8.34c-1.56,0-2.84-1.27-2.84-2.84s1.27-2.83,2.84-2.83,2.83,1.27,2.83,2.83-1.27,2.84-2.83,2.84Z"/>
        <path class="cls-1" d="m69.97,103.24c-1.71,2.99-5.28,7.1-12.28,7.93.41-.42.77-.88,1.07-1.36,1.1-1.77,1.23-3.57,1.07-5.03,3.21-.67,6.58-1.18,10.14-1.54Z"/>
        <path class="cls-1" d="m20.18,127.55c.84.05,1.63.07,2.36.07-1.35,1.04-2.96,2.11-4.8,3.04.78-1.05,1.59-2.1,2.45-3.11Z"/>
        <path class="cls-1" d="m91.4,108c-3.42-1.26-5.64-3.64-6.87-5.33,3.72.02,7.15.05,10.32.09.13,1.51.62,3.37,2.18,4.95.4.41.85.77,1.34,1.09-2.52.25-4.84-.01-6.97-.8Z"/>
        <path class="cls-1" d="m64.95,142.01c.08.09.15.17.24.26,3.42,3.49,8.25,5.26,14.38,5.26,1.11,0,2.27-.06,3.46-.18,8.75-.86,14.09-4.07,17.34-7.68-2.14,5.98-6.8,12.61-16.96,13.3-6.38.43-11.33-1.05-14.64-4.4-2-2.02-3.14-4.44-3.81-6.56Z"/>
        <path class="cls-1" d="m35.26,145.22c2.62.9,5.21,1.36,7.7,1.36,4.31,0,7.91-1.32,10.87-3.2-3.84,3.97-9.32,7.97-15.83,7.97-2.12,0-4.27-.43-6.41-1.26-3.01-1.18-4.87-2.99-5.68-5.53-.7-2.19-.57-4.69-.05-7.13,1.55,3.56,4.7,6.19,9.4,7.8Z"/>
        <path class="cls-1" d="m92.64,182.87c.27.83.03,1.74-.61,2.33-2.53,2.36-3.37,5.7-2.26,8.94.36,1.04.89,2.02,1.59,2.94,2.08,2.71,5.38,4.53,9.05,4.98.88.11,1.61.72,1.87,1.56.26.84.01,1.76-.65,2.35-2.22,1.99-2.97,4.85-2.01,7.64.3.89.76,1.73,1.36,2.51.48.63,1.05,1.19,1.67,1.7,4.08.43,8.12.69,12.01.69.66,0,1.32,0,1.98-.02.11-.22.24-.43.43-.61.38-.37.7-.76.97-1.16,1.26-1.86,1.52-4.02.75-6.25-.3-.89-.76-1.73-1.36-2.51-1.61-2.11-4.16-3.61-6.99-4.13-.87-.16-1.57-.82-1.78-1.68-.21-.86.11-1.77.81-2.31,3.04-2.34,4.16-5.99,2.95-9.52-.36-1.04-.89-2.03-1.59-2.94-1.83-2.39-4.72-4.14-7.93-4.8-.86-.18-1.54-.84-1.74-1.69s.12-1.75.81-2.29c.94-.73,1.75-1.59,2.39-2.54,1.79-2.65,2.18-5.83,1.1-8.96-.43-1.24-1.07-2.42-1.9-3.51-2.89-3.77-7.86-6.11-12.96-6.11-1.07,0-2.14.1-3.18.31-3.79.75-6.93,2.84-8.6,5.76-1.45,2.52-1.71,5.48-.73,8.32.43,1.24,1.07,2.42,1.91,3.52,2.47,3.22,6.4,5.4,10.78,5.96.86.11,1.59.71,1.85,1.54Zm12.74,30.23c-.05-1.95,1.5-3.58,3.45-3.63.02,0,.08,0,.09,0,1.94,0,3.49,1.52,3.54,3.45.03.95-.32,1.85-.97,2.53-.65.69-1.53,1.08-2.48,1.1h-.09c-1.93,0-3.49-1.52-3.54-3.45Zm-8.46-20.48c-.06-2.34,1.8-4.3,4.14-4.36.01,0,.1,0,.11,0,2.32,0,4.19,1.82,4.25,4.14.06,2.34-1.8,4.3-4.14,4.36-.02,0-.1,0-.11,0-2.32,0-4.19-1.82-4.25-4.14Zm-5.12-17.32s-.11,0-.13,0c-2.71,0-4.89-2.12-4.96-4.83-.07-2.73,2.1-5.02,4.83-5.09.02,0,.11,0,.13,0,2.71,0,4.89,2.12,4.96,4.83.07,2.73-2.1,5.02-4.83,5.09Z"/>
        <path class="cls-1" d="m.03,199.66c0-11.39-.07-39.59,13.51-62.67,3.37-.8,6.34-2.2,8.81-3.74-1.29,3.97-2.02,8.57-.72,12.65,1.23,3.86,4.03,6.68,8.32,8.36,2.66,1.04,5.37,1.57,8.05,1.57,10.45,0,18.29-7.84,22.45-13.22.8,2.85,2.3,6.25,5.11,9.1,3.2,3.23,7.45,5.11,12.63,5.64-1.3,1.13-2.4,2.44-3.25,3.91-2.11,3.67-2.5,7.94-1.09,12.03.59,1.7,1.46,3.31,2.59,4.79,2.47,3.22,6.02,5.62,10.07,6.88-1.84,3.18-2.24,7-.99,10.62.51,1.49,1.28,2.91,2.28,4.21,2.07,2.71,5.02,4.75,8.38,5.87-1.58,2.82-1.9,6.17-.79,9.39.23.67.52,1.33.86,1.96-16.96-2.38-33.76-6.76-43.43-6.5-17.45.47-26.01,108.87-26.37,113.54,0,.1-.01.18-.01.18,0,0-2.78,1.74-13.22,1.74-10.44,0-13.21-1.96-13.21-1.96v-119.5h.02c0-1.91,0-3.56,0-4.86Z"/>
        <path class="cls-1" d="m24.3,123.07c2.54-.14,3.95-.54,3.96-.54.88-.27,1.82.02,2.4.72.58.71.67,1.7.24,2.5-.03.05-2.77,5.2-1.06,9.59.97,2.5,3.29,4.39,6.87,5.62,2.15.74,4.25,1.11,6.24,1.11,11.71,0,17.34-13.13,17.39-13.26.41-1,1.48-1.56,2.53-1.34,1.06.22,1.81,1.16,1.8,2.24,0,.05-.03,5.59,3.75,9.43,3.04,3.08,7.84,4.35,14.15,3.72,18.31-1.8,18.35-15.09,18.35-15.64-.02-.99.61-1.88,1.55-2.19.23-.08.47-.11.7-.11.72,0,1.41.35,1.84.96.07.1,7.07,9.96,16.48,9.96h0c3.31,0,6.61-1.25,9.81-3.7,2.98-2.29,4.53-5.04,4.72-8.4.43-7.44-5.77-15.86-9.6-20.3-5.51-.24-13.59-.47-27.05-.64.11.64.35,1.23.84,1.73,1.21,1.23,3.79,1.77,7.46,1.55,1.08-.07,2.05.65,2.31,1.7.26,1.05-.26,2.13-1.24,2.59-4.33,2.01-8.41,3.01-12.2,3.01-2.38,0-4.66-.4-6.8-1.2-2.78-1.04-4.94-2.62-6.56-4.19l1.48,5.75c.31,1.2-.41,2.43-1.62,2.74-.19.05-.38.07-.56.07-1,0-1.92-.67-2.18-1.69l-2.08-8.04-.98,8.24c-.13,1.14-1.11,1.99-2.23,1.99-.09,0-.18,0-.27-.02-1.23-.15-2.12-1.26-1.97-2.5l1.09-9.2c-2.47,4.35-7.88,10.48-18.71,10.48-2.19,0-4.61-.25-7.27-.82-1.05-.23-1.8-1.17-1.78-2.25.03-1.08.81-1.99,1.88-2.17,3.62-.6,6.02-1.7,6.93-3.16.32-.52.44-1.06.44-1.62-13.3,3.5-23.4,9.66-31.08,17.26Zm90.63-.77c0-3.93,3.2-7.12,7.13-7.12s7.12,3.2,7.12,7.13-3.2,7.12-7.13,7.12-7.12-3.2-7.12-7.13Zm-39.25,7.5c0-3.93,3.2-7.12,7.13-7.12s7.12,3.2,7.12,7.13-3.2,7.12-7.13,7.12-7.12-3.2-7.12-7.12Zm-39-2.25c0-3.93,3.2-7.12,7.13-7.12s7.12,3.2,7.12,7.13-3.2,7.12-7.13,7.12-7.12-3.2-7.12-7.12Z"/>
        <path class="cls-1" d="m152.67,71.08c-1.48.07-4.45-.21-5.92-1.29,2.17-3.77,4.56-7.63,7.16-11.48,1.26,2.3,3.15,4.24,4.97,6.09,4.9,5,9.53,9.73,3.5,21.76-.24.36-.38.79-.38,1.26,0,1.24,1.01,2.25,2.25,2.25h.02c.49,0,.99-.16,1.4-.48.9-.71,2.28-1.71,4.03-2.98,4.06-2.95,9.63-6.98,15.17-11.71,9.7-8.28,19.49-18,18.62-27.31-.72-7.67-5.53-9.89-9.77-11.84-4-1.84-7.46-3.46-8.39-9.66,2.54-1.67,5.18-3.19,7.9-4.52,2.4-.55,4.96.39,6.13,2.37,1.17,2.08-.06,6.38-.59,7.72-.26.66-.19,1.4.18,2.01.37.6,1.01,1,1.71,1.06,1.68.16,6.35,1.18,7.81,3.97,1.78,3.4-.37,7.72-.39,7.76-.35.7-.32,1.53.09,2.2.41.67,1.13,1.08,1.91,1.08.99,0,9.78.31,10.18,8.62.12,2.46-.51,4.35-1.92,5.78-3.29,3.32-9.67,3.11-9.74,3.11-.69-.01-1.36.26-1.8.79-.45.53-.63,1.23-.49,1.9.03.16.76,4.48-3.36,8.07-3.56,3.1-9.4,2-9.46,1.99-.66-.13-1.35.04-1.87.47-.52.43-.82,1.07-.82,1.74,0,.23-.1,5.81-4.76,8.89-4.3,2.84-9.34-1.2-9.56-1.38-.59-.48-1.39-.64-2.12-.4-.73.24-1.29.82-1.48,1.56-.09.33-2.35,8.17-10.05,7.2-2.01-.25-3.36-.98-4.1-2.23-1.6-2.68-.34-7.38.27-8.96.23-.58.2-1.22-.06-1.78-.26-.56-.75-.99-1.34-1.18-.03,0-3.39-1.15-4.63-3.61-.85-1.69,1.02-4.48,1.56-5.13.57-.69.69-1.65.29-2.45-.4-.8-1.23-1.3-2.13-1.25Z"/>
        <path class="cls-1" d="m239.15,53.03c5.57,9.86,15.5,23.55,30.87,31.97-4-.12-7.65-.01-10.96.32-.04,0-.09-.01-.13-.01-.01,0-.02,0-.03,0-5,.07-9.54.29-13.67.63-3.03-12.06-4.92-23.16-6.08-32.91Z"/>
        <path class="cls-1" d="m227.8,154.21c-1.37-.48-2.84-.76-4.36-.83-1.88-.1-3.81.14-5.68.68-1.39-3.13-4.13-5.56-7.82-6.83-1.54-.54-3.19-.85-4.89-.93-2.81-.13-5.68.37-8.33,1.43-1.37-3.86-4.5-6.81-8.87-8.32-1.68-.58-3.46-.92-5.3-1.01-3.53-.17-7.19.61-10.44,2.17-1.13-4.93-4.9-9-10.32-10.88-1.87-.65-3.87-1.03-5.94-1.13-3.35-.16-6.81.43-10.02,1.68-.36-13.32-13.14-27.67-13.72-28.32-.08-.09-.17-.16-.25-.23,1.85-5.26,6.1-15.88,12.69-27.94,1.38.86,3,1.33,4.46,1.57-.78,1.88-1.23,4.29-.06,6.6,1.27,2.51,3.53,4.09,5.2,4.97-.7,2.65-1.42,7.24.71,10.82,1.02,1.71,3.12,3.87,7.41,4.41.66.08,1.29.12,1.91.12,6.3,0,10.12-4.17,11.97-7.83,2.85,1.52,7.7,3.11,12.38.02,4.46-2.95,5.99-7.42,6.51-10.18,2.78.12,7.37-.23,10.87-3.28,3.85-3.35,4.79-7.23,4.94-9.74,2.83-.25,7.52-1.16,10.68-4.34,2.33-2.34,3.42-5.43,3.24-9.18-.4-8.31-6.66-11.64-11.59-12.59.61-2.35.96-5.75-.7-8.93-1.87-3.6-5.96-5.19-8.7-5.88.61-2.48,1.08-6.22-.51-9.05-.75-1.26-1.77-2.3-2.95-3.08,6-2.1,12.37-3.29,19.12-3.29,7.35-.19,11.2.95,13.8,1.79-.25,4.94-.41,12.85.22,23.01l-4.48,2.51c-1.08.61-1.47,1.98-.86,3.06.41.74,1.18,1.15,1.96,1.15.37,0,.75-.09,1.1-.29l2.64-1.48c.08.93.16,1.87.25,2.82l-3.09,1.73c-1.08.61-1.47,1.98-.86,3.06.41.74,1.18,1.15,1.96,1.15.37,0,.75-.09,1.1-.29l1.4-.78c1.14,10.05,3.05,21.53,6.15,34.02-24.9,2.79-33.68,10.35-40.98,16.64-7.84,6.76-13.5,11.64-38.84,6.45-.03,0-.05,0-.08,0-.08-.01-.17-.02-.25-.03-.07,0-.13,0-.2,0-.08,0-.16.01-.24.02-.07,0-.13.02-.2.03-.08.02-.15.04-.22.07-.06.02-.13.04-.19.07-.07.03-.14.07-.21.11-.06.03-.11.07-.17.1-.06.05-.12.1-.18.15-.05.04-.1.09-.14.13-.05.06-.1.12-.15.18-.04.05-.09.11-.12.17-.04.06-.07.13-.11.2-.04.07-.07.14-.1.21-.01.03-.03.05-.04.08-.02.05-.02.09-.03.14-.01.04-.03.08-.04.13,0,.03,0,.05,0,.08-.01.08-.02.16-.03.24,0,.07,0,.14,0,.21,0,.08.01.15.02.23,0,.07.02.14.04.21.02.07.04.14.06.21.02.07.04.14.08.2.03.07.06.13.1.19.04.06.07.12.11.18.04.06.09.12.14.17.05.05.09.11.14.16.05.05.11.1.17.14.06.05.12.09.18.13.06.04.12.07.19.1.07.04.14.07.21.1.03,0,.05.03.08.04,15.39,5.24,26.8,7.33,35.65,7.33,16.59,0,24.16-7.34,32.01-14.95,4.45-4.32,8.97-8.69,15.43-11.89.82,2.91,1.7,5.87,2.65,8.87-9.47,5.14-14.57,29.67-16.71,51.42-.31-.13-.61-.27-.94-.38Z"/>
        <path class="cls-1" d="m300.2,78.23c6.06,7.32,7.7,12,1.05,23.46-6.37,10.97-14.54,13.58-22.21,11.38,2.59-13.79,13.33-26.72,21.17-34.84Z"/>
        <path class="cls-1" d="m123.07,209c-.46-1.35-1.15-2.62-2.04-3.78-1.53-1.99-3.62-3.6-6.02-4.67,2.41-3.36,3.1-7.64,1.7-11.71-.52-1.5-1.28-2.91-2.28-4.21-1.76-2.29-4.13-4.11-6.87-5.29.19-.25.38-.51.56-.77,2.6-3.85,3.17-8.44,1.63-12.94-.58-1.7-1.46-3.31-2.59-4.79-2.83-3.69-7-6.26-11.67-7.33,5.91-4.08,9-10.61,10.34-16.45,3.65,5.46,10.17,12.49,19.48,12.49h0c2.22,0,4.48-.43,6.76-1.24.03.85.04,1.02.05,1.13.61,5.76,4.57,10.45,10.59,12.54,1.87.65,3.87,1.03,5.94,1.13,4.7.22,9.49-.99,13.57-3.4,1.34,3.8,4.5,6.85,8.83,8.35,1.67.58,3.45.92,5.3,1.01,3.61.17,7.28-.6,10.56-2.21,1.43,3.02,4.16,5.41,7.72,6.65,1.54.53,3.18.85,4.89.93,3.09.14,6.96-.57,10.01-1.77,1.37,2.25,3.44,3.92,5.99,4.81,1.27.44,2.77.71,4.46.79.49.02.99.04,1.49.04,1.98,0,4.04-.23,6.02-1.02,0,.21,0,.43,0,.64,0,25.5-2.01,146.11-2.01,146.11,0,0-2.79,1.96-13.23,1.96s-13.22-1.96-13.22-1.96c0,0-5.23-113.47-25.39-113.47-8.04,0-30.8,6.25-51.25,7.68,1.52-2.81,1.77-6.04.67-9.22Z"/>
        <path class="cls-1" d="m182.65,70.45c-.4-5.75-3.83-9.17-6.94-12.25-4.28-4.25-8.32-8.26-6.92-18.54,1.2-1.25,2.43-2.48,3.68-3.67.96,7.76,5.83,11.69,9.89,14.94,4.35,3.47,7.79,6.22,7.23,12.72-.01.14,0,.28,0,.41-2.22,2.23-4.62,4.39-6.96,6.4Z"/>
        <path class="cls-1" d="m287.01,86.68c-24.44-5.54-38.8-26.34-45.23-38.36l1.87-1.05c1.09-.61,1.47-1.98.87-3.06-.61-1.09-1.98-1.47-3.06-.87l-1.7.95c-.43-.9-.79-1.69-1.08-2.36l2.98-1.67c1.09-.61,1.47-1.98.87-3.06-.61-1.08-1.98-1.47-3.06-.87l-1.67.93c-.46-8.61-.33-15.36-.11-19.81,1.15-.23,2.42-.96,4.26-2.53C246.43,11.1,262.57,0,266.21,0s-1.21,31.08-1.21,31.08c0,0-2.49,13.75,3.87,18.73,4.31,3.61,19.98,16.37,28.31,25.06-3.13,3.23-6.75,7.24-10.18,11.81Z"/>
        <path class="cls-1" d="m157.07,53.81c2.2-3.03,4.54-6.03,7.01-8.92.43,8.49,4.8,12.88,8.46,16.51,3.71,3.69,6.4,6.35,5.47,12.36-.03.19-.03.37,0,.55-3.18,2.54-6.25,4.82-8.88,6.75,2.49-10.08-2.7-15.38-7.03-19.8-2.5-2.55-4.58-4.68-5.03-7.44Z"/>
        <path class="cls-1" d="m191.82,39.43c3.89,1.79,6.7,3.09,7.17,8.18.34,3.62-1.82,7.68-5.09,11.72-1.04-5.78-5.07-9.01-8.72-11.92-4.72-3.76-8.79-7.03-8.35-15.33,1.46-1.24,2.94-2.43,4.47-3.57,1.79,6.89,6.58,9.11,10.52,10.93Z"/>
        <path class="cls-1" d="m284.07,90.81c-4.2,6.26-7.77,13.33-9.3,20.73-5.99-2.25-8.76-3.31-23.24-9.01-.56-.17-1.11-.27-1.65-.32-1.05-3.29-2.02-6.53-2.91-9.71,8.38-3.06,19.82-4.23,37.1-1.7Z"/>
      </g>
    </g>
  </g>
</svg>