<?xml version="1.0" encoding="utf-8"?>
<!-- Generator: Adobe Illustrator 27.8.1, SVG Export Plug-In . SVG Version: 6.00 Build 0)  -->
<svg version="1.1" id="Layer_1" xmlns:svg="http://www.w3.org/2000/svg"
	 xmlns="http://www.w3.org/2000/svg" xmlns:xlink="http://www.w3.org/1999/xlink" x="0px" y="0px" viewBox="0 0 694.7 250.6"
	 style="enable-background:new 0 0 694.7 250.6;" xml:space="preserve">
<style type="text/css">
	
		.st0{fill:#2F2D31;fill-opacity:0;stroke:#2F2D31;stroke-width:0.5669;stroke-linecap:round;stroke-linejoin:round;stroke-miterlimit:11.3386;}
</style>
<g transform="translate(0 0) scale(1 1)">
</g>
<g>
	<path class="st0" d="M644.8,187.9v36.9"/>
	<path class="st0" d="M684.5,224.7v-36.9"/>
	<path class="st0" d="M683,186.4h-36.9"/>
	<path class="st0" d="M646.2,226.1H683"/>
	<path class="st0" d="M646.2,186.4c-0.8,0-1.4,0.6-1.4,1.4"/>
	<path class="st0" d="M684.5,187.9c0-0.8-0.6-1.4-1.4-1.4"/>
	<path class="st0" d="M683,226.1c0.8,0,1.4-0.6,1.4-1.4"/>
	<path class="st0" d="M644.8,224.7c0,0.8,0.6,1.4,1.4,1.4"/>
	<path class="st0" d="M590.8,187.9v36.9"/>
	<path class="st0" d="M630.5,224.7v-36.9"/>
	<path class="st0" d="M629,186.4h-36.9"/>
	<path class="st0" d="M592.2,226.1H629"/>
	<path class="st0" d="M592.2,186.4c-0.8,0-1.4,0.6-1.4,1.4"/>
	<path class="st0" d="M630.5,187.9c0-0.8-0.6-1.4-1.4-1.4"/>
	<path class="st0" d="M629,226.1c0.8,0,1.4-0.6,1.4-1.4"/>
	<path class="st0" d="M590.8,224.7c0,0.8,0.6,1.4,1.4,1.4"/>
	<path class="st0" d="M536.8,187.9v36.9"/>
	<path class="st0" d="M576.5,224.7v-36.9"/>
	<path class="st0" d="M575,186.4h-36.9"/>
	<path class="st0" d="M538.2,226.1H575"/>
	<path class="st0" d="M538.2,186.4c-0.8,0-1.4,0.6-1.4,1.4"/>
	<path class="st0" d="M576.5,187.9c0-0.8-0.6-1.4-1.4-1.4"/>
	<path class="st0" d="M575,226.1c0.8,0,1.4-0.6,1.4-1.4"/>
	<path class="st0" d="M536.8,224.7c0,0.8,0.6,1.4,1.4,1.4"/>
	<path class="st0" d="M449,187.9v36.9"/>
	<path class="st0" d="M488.7,224.7v-36.9"/>
	<path class="st0" d="M487.3,186.4h-36.9"/>
	<path class="st0" d="M450.4,226.1h36.9"/>
	<path class="st0" d="M450.4,186.4c-0.8,0-1.4,0.6-1.4,1.4"/>
	<path class="st0" d="M488.7,187.9c0-0.8-0.6-1.4-1.4-1.4"/>
	<path class="st0" d="M487.3,226.1c0.8,0,1.4-0.6,1.4-1.4"/>
	<path class="st0" d="M449,224.7c0,0.8,0.6,1.4,1.4,1.4"/>
	<path class="st0" d="M336.9,224.7V185"/>
	<path class="st0" d="M317.1,185v39.7"/>
	<path class="st0" d="M318.5,226.1h17"/>
	<path class="st0" d="M335.5,183.6h-17"/>
	<path class="st0" d="M335.5,226.1c0.8,0,1.4-0.6,1.4-1.4"/>
	<path class="st0" d="M317.1,224.7c0,0.8,0.6,1.4,1.4,1.4"/>
	<path class="st0" d="M318.5,183.6c-0.8,0-1.4,0.6-1.4,1.4"/>
	<path class="st0" d="M336.9,185c0-0.8-0.6-1.4-1.4-1.4"/>
	<path class="st0" d="M404.6,224.7V185"/>
	<path class="st0" d="M384.8,185v39.7"/>
	<path class="st0" d="M386.2,226.1h17"/>
	<path class="st0" d="M403.2,183.6h-17"/>
	<path class="st0" d="M403.2,226.1c0.8,0,1.4-0.6,1.4-1.4"/>
	<path class="st0" d="M384.8,224.7c0,0.8,0.6,1.4,1.4,1.4"/>
	<path class="st0" d="M386.2,183.6c-0.8,0-1.4,0.6-1.4,1.4"/>
	<path class="st0" d="M404.6,185c0-0.8-0.6-1.4-1.4-1.4"/>
	<path class="st0" d="M341,187.9v36.9"/>
	<path class="st0" d="M380.7,224.7v-36.9"/>
	<path class="st0" d="M379.3,186.4h-36.9"/>
	<path class="st0" d="M342.4,226.1h36.9"/>
	<path class="st0" d="M342.4,186.4c-0.8,0-1.4,0.6-1.4,1.4"/>
	<path class="st0" d="M380.7,187.9c0-0.8-0.6-1.4-1.4-1.4"/>
	<path class="st0" d="M379.3,226.1c0.8,0,1.4-0.6,1.4-1.4"/>
	<path class="st0" d="M341,224.7c0,0.8,0.6,1.4,1.4,1.4"/>
	<path class="st0" d="M161.5,224.7V185"/>
	<path class="st0" d="M141.7,185v39.7"/>
	<path class="st0" d="M143.1,226.1h17"/>
	<path class="st0" d="M160.1,183.6h-17"/>
	<path class="st0" d="M160.1,226.1c0.8,0,1.4-0.6,1.4-1.4"/>
	<path class="st0" d="M141.7,224.7c0,0.8,0.6,1.4,1.4,1.4"/>
	<path class="st0" d="M143.1,183.6c-0.8,0-1.4,0.6-1.4,1.4"/>
	<path class="st0" d="M161.5,185c0-0.8-0.6-1.4-1.4-1.4"/>
	<path class="st0" d="M269.5,224.7V185"/>
	<path class="st0" d="M249.7,185v39.7"/>
	<path class="st0" d="M251.1,226.1h17"/>
	<path class="st0" d="M268.1,183.6h-17"/>
	<path class="st0" d="M268.1,226.1c0.8,0,1.4-0.6,1.4-1.4"/>
	<path class="st0" d="M249.7,224.7c0,0.8,0.6,1.4,1.4,1.4"/>
	<path class="st0" d="M251.1,183.6c-0.8,0-1.4,0.6-1.4,1.4"/>
	<path class="st0" d="M269.5,185c0-0.8-0.6-1.4-1.4-1.4"/>
	<path class="st0" d="M185.8,187.9v36.9"/>
	<path class="st0" d="M225.5,224.7v-36.9"/>
	<path class="st0" d="M224,186.4h-36.9"/>
	<path class="st0" d="M187.2,226.1H224"/>
	<path class="st0" d="M187.2,186.4c-0.8,0-1.4,0.6-1.4,1.4"/>
	<path class="st0" d="M225.5,187.9c0-0.8-0.6-1.4-1.4-1.4"/>
	<path class="st0" d="M224,226.1c0.8,0,1.4-0.6,1.4-1.4"/>
	<path class="st0" d="M185.8,224.7c0,0.8,0.6,1.4,1.4,1.4"/>
	<path class="st0" d="M71,187.9v36.9"/>
	<path class="st0" d="M110.7,224.7v-36.9"/>
	<path class="st0" d="M109.3,186.4H72.4"/>
	<path class="st0" d="M72.4,226.1h36.9"/>
	<path class="st0" d="M72.4,186.4c-0.8,0-1.4,0.6-1.4,1.4"/>
	<path class="st0" d="M110.7,187.9c0-0.8-0.6-1.4-1.4-1.4"/>
	<path class="st0" d="M109.3,226.1c0.8,0,1.4-0.6,1.4-1.4"/>
	<path class="st0" d="M71,224.7c0,0.8,0.6,1.4,1.4,1.4"/>
	<path class="st0" d="M10.3,187.9v36.9"/>
	<path class="st0" d="M50,224.7v-36.9"/>
	<path class="st0" d="M48.5,186.4H11.7"/>
	<path class="st0" d="M11.7,226.1h36.9"/>
	<path class="st0" d="M11.7,186.4c-0.8,0-1.4,0.6-1.4,1.4"/>
	<path class="st0" d="M50,187.9c0-0.8-0.6-1.4-1.4-1.4"/>
	<path class="st0" d="M48.5,226.1c0.8,0,1.4-0.6,1.4-1.4"/>
	<path class="st0" d="M10.3,224.7c0,0.8,0.6,1.4,1.4,1.4"/>
	<path class="st0" d="M644.8,133.9v36.9"/>
	<path class="st0" d="M684.5,170.7v-36.9"/>
	<path class="st0" d="M683,132.4h-36.9"/>
	<path class="st0" d="M646.2,172.1H683"/>
	<path class="st0" d="M646.2,132.4c-0.8,0-1.4,0.6-1.4,1.4"/>
	<path class="st0" d="M684.5,133.9c0-0.8-0.6-1.4-1.4-1.4"/>
	<path class="st0" d="M683,172.1c0.8,0,1.4-0.6,1.4-1.4"/>
	<path class="st0" d="M644.8,170.7c0,0.8,0.6,1.4,1.4,1.4"/>
	<path class="st0" d="M590.8,133.9v36.9"/>
	<path class="st0" d="M630.5,170.7v-36.9"/>
	<path class="st0" d="M629,132.4h-36.9"/>
	<path class="st0" d="M592.2,172.1H629"/>
	<path class="st0" d="M592.2,132.4c-0.8,0-1.4,0.6-1.4,1.4"/>
	<path class="st0" d="M630.5,133.9c0-0.8-0.6-1.4-1.4-1.4"/>
	<path class="st0" d="M629,172.1c0.8,0,1.4-0.6,1.4-1.4"/>
	<path class="st0" d="M590.8,170.7c0,0.8,0.6,1.4,1.4,1.4"/>
	<path class="st0" d="M469.3,133.9v36.9"/>
	<path class="st0" d="M509,170.7v-36.9"/>
	<path class="st0" d="M507.5,132.4h-36.9"/>
	<path class="st0" d="M470.7,172.1h36.9"/>
	<path class="st0" d="M470.7,132.4c-0.8,0-1.4,0.6-1.4,1.4"/>
	<path class="st0" d="M509,133.9c0-0.8-0.6-1.4-1.4-1.4"/>
	<path class="st0" d="M507.5,172.1c0.8,0,1.4-0.6,1.4-1.4"/>
	<path class="st0" d="M469.3,170.7c0,0.8,0.6,1.4,1.4,1.4"/>
	<path class="st0" d="M415.3,133.9v36.9"/>
	<path class="st0" d="M455,170.7v-36.9"/>
	<path class="st0" d="M453.5,132.4h-36.9"/>
	<path class="st0" d="M416.7,172.1h36.9"/>
	<path class="st0" d="M416.7,132.4c-0.8,0-1.4,0.6-1.4,1.4"/>
	<path class="st0" d="M455,133.9c0-0.8-0.6-1.4-1.4-1.4"/>
	<path class="st0" d="M453.5,172.1c0.8,0,1.4-0.6,1.4-1.4"/>
	<path class="st0" d="M415.3,170.7c0,0.8,0.6,1.4,1.4,1.4"/>
	<path class="st0" d="M361.3,133.9v36.9"/>
	<path class="st0" d="M401,170.7v-36.9"/>
	<path class="st0" d="M399.5,132.4h-36.9"/>
	<path class="st0" d="M362.7,172.1h36.9"/>
	<path class="st0" d="M362.7,132.4c-0.8,0-1.4,0.6-1.4,1.4"/>
	<path class="st0" d="M401,133.9c0-0.8-0.6-1.4-1.4-1.4"/>
	<path class="st0" d="M399.5,172.1c0.8,0,1.4-0.6,1.4-1.4"/>
	<path class="st0" d="M361.3,170.7c0,0.8,0.6,1.4,1.4,1.4"/>
	<path class="st0" d="M307.3,133.9v36.9"/>
	<path class="st0" d="M347,170.7v-36.9"/>
	<path class="st0" d="M345.5,132.4h-36.9"/>
	<path class="st0" d="M308.7,172.1h36.9"/>
	<path class="st0" d="M308.7,132.4c-0.8,0-1.4,0.6-1.4,1.4"/>
	<path class="st0" d="M347,133.9c0-0.8-0.6-1.4-1.4-1.4"/>
	<path class="st0" d="M345.5,172.1c0.8,0,1.4-0.6,1.4-1.4"/>
	<path class="st0" d="M307.3,170.7c0,0.8,0.6,1.4,1.4,1.4"/>
	<path class="st0" d="M253.3,133.9v36.9"/>
	<path class="st0" d="M293,170.7v-36.9"/>
	<path class="st0" d="M291.5,132.4h-36.9"/>
	<path class="st0" d="M254.7,172.1h36.9"/>
	<path class="st0" d="M254.7,132.4c-0.8,0-1.4,0.6-1.4,1.4"/>
	<path class="st0" d="M293,133.9c0-0.8-0.6-1.4-1.4-1.4"/>
	<path class="st0" d="M291.5,172.1c0.8,0,1.4-0.6,1.4-1.4"/>
	<path class="st0" d="M253.3,170.7c0,0.8,0.6,1.4,1.4,1.4"/>
	<path class="st0" d="M199.3,133.9v36.9"/>
	<path class="st0" d="M239,170.7v-36.9"/>
	<path class="st0" d="M237.5,132.4h-36.9"/>
	<path class="st0" d="M200.7,172.1h36.9"/>
	<path class="st0" d="M200.7,132.4c-0.8,0-1.4,0.6-1.4,1.4"/>
	<path class="st0" d="M239,133.9c0-0.8-0.6-1.4-1.4-1.4"/>
	<path class="st0" d="M237.5,172.1c0.8,0,1.4-0.6,1.4-1.4"/>
	<path class="st0" d="M199.3,170.7c0,0.8,0.6,1.4,1.4,1.4"/>
	<path class="st0" d="M145.3,133.9v36.9"/>
	<path class="st0" d="M185,170.7v-36.9"/>
	<path class="st0" d="M183.5,132.4h-36.9"/>
	<path class="st0" d="M146.7,172.1h36.9"/>
	<path class="st0" d="M146.7,132.4c-0.8,0-1.4,0.6-1.4,1.4"/>
	<path class="st0" d="M185,133.9c0-0.8-0.6-1.4-1.4-1.4"/>
	<path class="st0" d="M183.5,172.1c0.8,0,1.4-0.6,1.4-1.4"/>
	<path class="st0" d="M145.3,170.7c0,0.8,0.6,1.4,1.4,1.4"/>
	<path class="st0" d="M91.3,133.9v36.9"/>
	<path class="st0" d="M131,170.7v-36.9"/>
	<path class="st0" d="M129.5,132.4H92.7"/>
	<path class="st0" d="M92.7,172.1h36.9"/>
	<path class="st0" d="M92.7,132.4c-0.8,0-1.4,0.6-1.4,1.4"/>
	<path class="st0" d="M131,133.9c0-0.8-0.6-1.4-1.4-1.4"/>
	<path class="st0" d="M129.5,172.1c0.8,0,1.4-0.6,1.4-1.4"/>
	<path class="st0" d="M91.3,170.7c0,0.8,0.6,1.4,1.4,1.4"/>
	<path class="st0" d="M23.8,133.9v36.9"/>
	<path class="st0" d="M63.5,170.7v-36.9"/>
	<path class="st0" d="M62,132.4H25.2"/>
	<path class="st0" d="M25.2,172.1H62"/>
	<path class="st0" d="M25.2,132.4c-0.8,0-1.4,0.6-1.4,1.4"/>
	<path class="st0" d="M63.5,133.9c0-0.8-0.6-1.4-1.4-1.4"/>
	<path class="st0" d="M62,172.1c0.8,0,1.4-0.6,1.4-1.4"/>
	<path class="st0" d="M23.8,170.7c0,0.8,0.6,1.4,1.4,1.4"/>
	<path class="st0" d="M644.8,79.9v36.9"/>
	<path class="st0" d="M684.5,116.7V79.9"/>
	<path class="st0" d="M683,78.4h-36.9"/>
	<path class="st0" d="M646.2,118.1H683"/>
	<path class="st0" d="M646.2,78.4c-0.8,0-1.4,0.6-1.4,1.4"/>
	<path class="st0" d="M684.5,79.9c0-0.8-0.6-1.4-1.4-1.4"/>
	<path class="st0" d="M683,118.1c0.8,0,1.4-0.6,1.4-1.4"/>
	<path class="st0" d="M644.8,116.7c0,0.8,0.6,1.4,1.4,1.4"/>
	<path class="st0" d="M590.8,79.9v36.9"/>
	<path class="st0" d="M630.5,116.7V79.9"/>
	<path class="st0" d="M629,78.4h-36.9"/>
	<path class="st0" d="M592.2,118.1H629"/>
	<path class="st0" d="M592.2,78.4c-0.8,0-1.4,0.6-1.4,1.4"/>
	<path class="st0" d="M630.5,79.9c0-0.8-0.6-1.4-1.4-1.4"/>
	<path class="st0" d="M629,118.1c0.8,0,1.4-0.6,1.4-1.4"/>
	<path class="st0" d="M590.8,116.7c0,0.8,0.6,1.4,1.4,1.4"/>
	<path class="st0" d="M568.3,149.2h-39.7"/>
	<path class="st0" d="M528.6,169.1h39.7"/>
	<path class="st0" d="M569.7,167.6v-17"/>
	<path class="st0" d="M527.2,150.6v17"/>
	<path class="st0" d="M569.7,150.6c0-0.8-0.6-1.4-1.4-1.4"/>
	<path class="st0" d="M568.3,169.1c0.8,0,1.4-0.6,1.4-1.4"/>
	<path class="st0" d="M527.2,167.6c0,0.8,0.6,1.4,1.4,1.4"/>
	<path class="st0" d="M528.6,149.2c-0.8,0-1.4,0.6-1.4,1.4"/>
	<path class="st0" d="M568.3,81.5h-39.7"/>
	<path class="st0" d="M528.6,101.4h39.7"/>
	<path class="st0" d="M569.7,100v-17"/>
	<path class="st0" d="M527.2,82.9v17"/>
	<path class="st0" d="M569.7,82.9c0-0.8-0.6-1.4-1.4-1.4"/>
	<path class="st0" d="M568.3,101.4c0.8,0,1.4-0.6,1.4-1.4"/>
	<path class="st0" d="M527.2,100c0,0.8,0.6,1.4,1.4,1.4"/>
	<path class="st0" d="M528.6,81.5c-0.8,0-1.4,0.6-1.4,1.4"/>
	<path class="st0" d="M530,106.9v36.9"/>
	<path class="st0" d="M569.7,143.7v-36.9"/>
	<path class="st0" d="M568.3,105.4h-36.9"/>
	<path class="st0" d="M531.4,145.1h36.9"/>
	<path class="st0" d="M531.4,105.4c-0.8,0-1.4,0.6-1.4,1.4"/>
	<path class="st0" d="M569.7,106.9c0-0.8-0.6-1.4-1.4-1.4"/>
	<path class="st0" d="M568.3,145.1c0.8,0,1.4-0.6,1.4-1.4"/>
	<path class="st0" d="M530,143.7c0,0.8,0.6,1.4,1.4,1.4"/>
	<path class="st0" d="M455.8,79.9v36.9"/>
	<path class="st0" d="M495.5,116.7V79.9"/>
	<path class="st0" d="M494,78.4h-36.9"/>
	<path class="st0" d="M457.2,118.1H494"/>
	<path class="st0" d="M457.2,78.4c-0.8,0-1.4,0.6-1.4,1.4"/>
	<path class="st0" d="M495.5,79.9c0-0.8-0.6-1.4-1.4-1.4"/>
	<path class="st0" d="M494,118.1c0.8,0,1.4-0.6,1.4-1.4"/>
	<path class="st0" d="M455.8,116.7c0,0.8,0.6,1.4,1.4,1.4"/>
	<path class="st0" d="M401.8,79.9v36.9"/>
	<path class="st0" d="M441.5,116.7V79.9"/>
	<path class="st0" d="M440,78.4h-36.9"/>
	<path class="st0" d="M403.2,118.1H440"/>
	<path class="st0" d="M403.2,78.4c-0.8,0-1.4,0.6-1.4,1.4"/>
	<path class="st0" d="M441.5,79.9c0-0.8-0.6-1.4-1.4-1.4"/>
	<path class="st0" d="M440,118.1c0.8,0,1.4-0.6,1.4-1.4"/>
	<path class="st0" d="M401.8,116.7c0,0.8,0.6,1.4,1.4,1.4"/>
	<path class="st0" d="M347.8,79.9v36.9"/>
	<path class="st0" d="M387.5,116.7V79.9"/>
	<path class="st0" d="M386,78.4h-36.9"/>
	<path class="st0" d="M349.2,118.1H386"/>
	<path class="st0" d="M349.2,78.4c-0.8,0-1.4,0.6-1.4,1.4"/>
	<path class="st0" d="M387.5,79.9c0-0.8-0.6-1.4-1.4-1.4"/>
	<path class="st0" d="M386,118.1c0.8,0,1.4-0.6,1.4-1.4"/>
	<path class="st0" d="M347.8,116.7c0,0.8,0.6,1.4,1.4,1.4"/>
	<path class="st0" d="M293.8,79.9v36.9"/>
	<path class="st0" d="M333.5,116.7V79.9"/>
	<path class="st0" d="M332,78.4h-36.9"/>
	<path class="st0" d="M295.2,118.1H332"/>
	<path class="st0" d="M295.2,78.4c-0.8,0-1.4,0.6-1.4,1.4"/>
	<path class="st0" d="M333.5,79.9c0-0.8-0.6-1.4-1.4-1.4"/>
	<path class="st0" d="M332,118.1c0.8,0,1.4-0.6,1.4-1.4"/>
	<path class="st0" d="M293.8,116.7c0,0.8,0.6,1.4,1.4,1.4"/>
	<path class="st0" d="M239.8,79.9v36.9"/>
	<path class="st0" d="M279.5,116.7V79.9"/>
	<path class="st0" d="M278,78.4h-36.9"/>
	<path class="st0" d="M241.2,118.1H278"/>
	<path class="st0" d="M241.2,78.4c-0.8,0-1.4,0.6-1.4,1.4"/>
	<path class="st0" d="M279.5,79.9c0-0.8-0.6-1.4-1.4-1.4"/>
	<path class="st0" d="M278,118.1c0.8,0,1.4-0.6,1.4-1.4"/>
	<path class="st0" d="M239.8,116.7c0,0.8,0.6,1.4,1.4,1.4"/>
	<path class="st0" d="M185.8,79.9v36.9"/>
	<path class="st0" d="M225.5,116.7V79.9"/>
	<path class="st0" d="M224,78.4h-36.9"/>
	<path class="st0" d="M187.2,118.1H224"/>
	<path class="st0" d="M187.2,78.4c-0.8,0-1.4,0.6-1.4,1.4"/>
	<path class="st0" d="M225.5,79.9c0-0.8-0.6-1.4-1.4-1.4"/>
	<path class="st0" d="M224,118.1c0.8,0,1.4-0.6,1.4-1.4"/>
	<path class="st0" d="M185.8,116.7c0,0.8,0.6,1.4,1.4,1.4"/>
	<path class="st0" d="M131.8,79.9v36.9"/>
	<path class="st0" d="M171.5,116.7V79.9"/>
	<path class="st0" d="M170,78.4h-36.9"/>
	<path class="st0" d="M133.2,118.1H170"/>
	<path class="st0" d="M133.2,78.4c-0.8,0-1.4,0.6-1.4,1.4"/>
	<path class="st0" d="M171.5,79.9c0-0.8-0.6-1.4-1.4-1.4"/>
	<path class="st0" d="M170,118.1c0.8,0,1.4-0.6,1.4-1.4"/>
	<path class="st0" d="M131.8,116.7c0,0.8,0.6,1.4,1.4,1.4"/>
	<path class="st0" d="M77.8,79.9v36.9"/>
	<path class="st0" d="M117.5,116.7V79.9"/>
	<path class="st0" d="M116,78.4H79.2"/>
	<path class="st0" d="M79.2,118.1H116"/>
	<path class="st0" d="M79.2,78.4c-0.8,0-1.4,0.6-1.4,1.4"/>
	<path class="st0" d="M117.5,79.9c0-0.8-0.6-1.4-1.4-1.4"/>
	<path class="st0" d="M116,118.1c0.8,0,1.4-0.6,1.4-1.4"/>
	<path class="st0" d="M77.8,116.7c0,0.8,0.6,1.4,1.4,1.4"/>
	<path class="st0" d="M17,79.9v36.9"/>
	<path class="st0" d="M56.7,116.7V79.9"/>
	<path class="st0" d="M55.3,78.4H18.4"/>
	<path class="st0" d="M18.4,118.1h36.9"/>
	<path class="st0" d="M18.4,78.4c-0.8,0-1.4,0.6-1.4,1.4"/>
	<path class="st0" d="M56.7,79.9c0-0.8-0.6-1.4-1.4-1.4"/>
	<path class="st0" d="M55.3,118.1c0.8,0,1.4-0.6,1.4-1.4"/>
	<path class="st0" d="M17,116.7c0,0.8,0.6,1.4,1.4,1.4"/>
	<path class="st0" d="M644.8,25.9v36.9"/>
	<path class="st0" d="M684.5,62.7V25.9"/>
	<path class="st0" d="M683,24.4h-36.9"/>
	<path class="st0" d="M646.2,64.1H683"/>
	<path class="st0" d="M646.2,24.4c-0.8,0-1.4,0.6-1.4,1.4"/>
	<path class="st0" d="M684.5,25.9c0-0.8-0.6-1.4-1.4-1.4"/>
	<path class="st0" d="M683,64.1c0.8,0,1.4-0.6,1.4-1.4"/>
	<path class="st0" d="M644.8,62.7c0,0.8,0.6,1.4,1.4,1.4"/>
	<path class="st0" d="M590.8,25.9v36.9"/>
	<path class="st0" d="M630.5,62.7V25.9"/>
	<path class="st0" d="M629,24.4h-36.9"/>
	<path class="st0" d="M592.2,64.1H629"/>
	<path class="st0" d="M592.2,24.4c-0.8,0-1.4,0.6-1.4,1.4"/>
	<path class="st0" d="M630.5,25.9c0-0.8-0.6-1.4-1.4-1.4"/>
	<path class="st0" d="M629,64.1c0.8,0,1.4-0.6,1.4-1.4"/>
	<path class="st0" d="M590.8,62.7c0,0.8,0.6,1.4,1.4,1.4"/>
	<path class="st0" d="M516.5,25.9v36.9"/>
	<path class="st0" d="M556.2,62.7V25.9"/>
	<path class="st0" d="M554.8,24.4h-36.9"/>
	<path class="st0" d="M517.9,64.1h36.9"/>
	<path class="st0" d="M517.9,24.4c-0.8,0-1.4,0.6-1.4,1.4"/>
	<path class="st0" d="M556.2,25.9c0-0.8-0.6-1.4-1.4-1.4"/>
	<path class="st0" d="M554.8,64.1c0.8,0,1.4-0.6,1.4-1.4"/>
	<path class="st0" d="M516.5,62.7c0,0.8,0.6,1.4,1.4,1.4"/>
	<path class="st0" d="M442.3,25.9v36.9"/>
	<path class="st0" d="M482,62.7V25.9"/>
	<path class="st0" d="M480.5,24.4h-36.9"/>
	<path class="st0" d="M443.7,64.1h36.9"/>
	<path class="st0" d="M443.7,24.4c-0.8,0-1.4,0.6-1.4,1.4"/>
	<path class="st0" d="M482,25.9c0-0.8-0.6-1.4-1.4-1.4"/>
	<path class="st0" d="M480.5,64.1c0.8,0,1.4-0.6,1.4-1.4"/>
	<path class="st0" d="M442.3,62.7c0,0.8,0.6,1.4,1.4,1.4"/>
	<path class="st0" d="M388.3,25.9v36.9"/>
	<path class="st0" d="M428,62.7V25.9"/>
	<path class="st0" d="M426.5,24.4h-36.9"/>
	<path class="st0" d="M389.7,64.1h36.9"/>
	<path class="st0" d="M389.7,24.4c-0.8,0-1.4,0.6-1.4,1.4"/>
	<path class="st0" d="M428,25.9c0-0.8-0.6-1.4-1.4-1.4"/>
	<path class="st0" d="M426.5,64.1c0.8,0,1.4-0.6,1.4-1.4"/>
	<path class="st0" d="M388.3,62.7c0,0.8,0.6,1.4,1.4,1.4"/>
	<path class="st0" d="M334.3,25.9v36.9"/>
	<path class="st0" d="M374,62.7V25.9"/>
	<path class="st0" d="M372.5,24.4h-36.9"/>
	<path class="st0" d="M335.7,64.1h36.9"/>
	<path class="st0" d="M335.7,24.4c-0.8,0-1.4,0.6-1.4,1.4"/>
	<path class="st0" d="M374,25.9c0-0.8-0.6-1.4-1.4-1.4"/>
	<path class="st0" d="M372.5,64.1c0.8,0,1.4-0.6,1.4-1.4"/>
	<path class="st0" d="M334.3,62.7c0,0.8,0.6,1.4,1.4,1.4"/>
	<path class="st0" d="M280.3,25.9v36.9"/>
	<path class="st0" d="M320,62.7V25.9"/>
	<path class="st0" d="M318.5,24.4h-36.9"/>
	<path class="st0" d="M281.7,64.1h36.9"/>
	<path class="st0" d="M281.7,24.4c-0.8,0-1.4,0.6-1.4,1.4"/>
	<path class="st0" d="M320,25.9c0-0.8-0.6-1.4-1.4-1.4"/>
	<path class="st0" d="M318.5,64.1c0.8,0,1.4-0.6,1.4-1.4"/>
	<path class="st0" d="M280.3,62.7c0,0.8,0.6,1.4,1.4,1.4"/>
	<path class="st0" d="M226.3,25.9v36.9"/>
	<path class="st0" d="M266,62.7V25.9"/>
	<path class="st0" d="M264.5,24.4h-36.9"/>
	<path class="st0" d="M227.7,64.1h36.9"/>
	<path class="st0" d="M227.7,24.4c-0.8,0-1.4,0.6-1.4,1.4"/>
	<path class="st0" d="M266,25.9c0-0.8-0.6-1.4-1.4-1.4"/>
	<path class="st0" d="M264.5,64.1c0.8,0,1.4-0.6,1.4-1.4"/>
	<path class="st0" d="M226.3,62.7c0,0.8,0.6,1.4,1.4,1.4"/>
	<path class="st0" d="M172.3,25.9v36.9"/>
	<path class="st0" d="M212,62.7V25.9"/>
	<path class="st0" d="M210.5,24.4h-36.9"/>
	<path class="st0" d="M173.7,64.1h36.9"/>
	<path class="st0" d="M173.7,24.4c-0.8,0-1.4,0.6-1.4,1.4"/>
	<path class="st0" d="M212,25.9c0-0.8-0.6-1.4-1.4-1.4"/>
	<path class="st0" d="M210.5,64.1c0.8,0,1.4-0.6,1.4-1.4"/>
	<path class="st0" d="M172.3,62.7c0,0.8,0.6,1.4,1.4,1.4"/>
	<path class="st0" d="M118.3,25.9v36.9"/>
	<path class="st0" d="M158,62.7V25.9"/>
	<path class="st0" d="M156.5,24.4h-36.9"/>
	<path class="st0" d="M119.7,64.1h36.9"/>
	<path class="st0" d="M119.7,24.4c-0.8,0-1.4,0.6-1.4,1.4"/>
	<path class="st0" d="M158,25.9c0-0.8-0.6-1.4-1.4-1.4"/>
	<path class="st0" d="M156.5,64.1c0.8,0,1.4-0.6,1.4-1.4"/>
	<path class="st0" d="M118.3,62.7c0,0.8,0.6,1.4,1.4,1.4"/>
	<path class="st0" d="M64.3,25.9v36.9"/>
	<path class="st0" d="M104,62.7V25.9"/>
	<path class="st0" d="M102.5,24.4H65.7"/>
	<path class="st0" d="M65.7,64.1h36.9"/>
	<path class="st0" d="M65.7,24.4c-0.8,0-1.4,0.6-1.4,1.4"/>
	<path class="st0" d="M104,25.9c0-0.8-0.6-1.4-1.4-1.4"/>
	<path class="st0" d="M102.5,64.1c0.8,0,1.4-0.6,1.4-1.4"/>
	<path class="st0" d="M64.3,62.7c0,0.8,0.6,1.4,1.4,1.4"/>
	<path class="st0" d="M10.3,25.9v36.9"/>
	<path class="st0" d="M50,62.7V25.9"/>
	<path class="st0" d="M48.5,24.4H11.7"/>
	<path class="st0" d="M11.7,64.1h36.9"/>
	<path class="st0" d="M11.7,24.4c-0.8,0-1.4,0.6-1.4,1.4"/>
	<path class="st0" d="M50,25.9c0-0.8-0.6-1.4-1.4-1.4"/>
	<path class="st0" d="M48.5,64.1c0.8,0,1.4-0.6,1.4-1.4"/>
	<path class="st0" d="M10.3,62.7c0,0.8,0.6,1.4,1.4,1.4"/>
	<path class="st0" d="M3.1,236.1h31.3"/>
	<path class="st0" d="M0.3,233.3c0,1.6,1.3,2.8,2.8,2.8l0,0"/>
	<path class="st0" d="M0.3,17.3v216"/>
	<path class="st0" d="M3.1,14.5c-1.6,0-2.8,1.3-2.8,2.8l0,0"/>
	<path class="st0" d="M34.4,14.5H3.1"/>
	<path class="st0" d="M48.6,0.3L34.4,14.5"/>
	<path class="st0" d="M65.6,0.3h-17"/>
	<path class="st0" d="M79.8,14.5L65.6,0.3"/>
	<path class="st0" d="M614.9,14.5H79.8"/>
	<path class="st0" d="M629.1,0.3l-14.2,14.2"/>
	<path class="st0" d="M646.1,0.3h-17"/>
	<path class="st0" d="M660.3,14.5L646.1,0.3"/>
	<path class="st0" d="M691.6,14.5h-31.3"/>
	<path class="st0" d="M694.5,17.3c0-1.6-1.3-2.8-2.8-2.8"/>
	<path class="st0" d="M694.5,233.3v-216"/>
	<path class="st0" d="M691.6,236.1c1.6,0,2.8-1.3,2.8-2.8"/>
	<path class="st0" d="M660.3,236.1h31.3"/>
	<path class="st0" d="M646.1,250.3l14.2-14.2"/>
	<path class="st0" d="M629.1,250.3h17"/>
	<path class="st0" d="M614.9,236.1l14.2,14.2"/>
	<path class="st0" d="M79.8,236.1h535.1"/>
	<path class="st0" d="M65.6,250.3l14.2-14.2"/>
	<path class="st0" d="M48.6,250.3h17"/>
	<path class="st0" d="M34.4,236.1l14.2,14.2"/>
	<circle class="st0" cx="57.1" cy="8.8" r="3.1"/>
	<circle class="st0" cx="637.6" cy="8.8" r="3.1"/>
	<circle class="st0" cx="637.6" cy="241.8" r="3.1"/>
	<circle class="st0" cx="57.1" cy="241.8" r="3.1"/>
</g>
</svg>
