M48
; DRILL file {KiCad 7.0.6} date Sun Jul  9 12:00:51 2023
; FORMAT={-:-/ absolute / inch / decimal}
; #@! TF.CreationDate,2023-07-09T12:00:51+02:00
; #@! TF.GenerationSoftware,Kicad,Pcbnew,7.0.6
; #@! TF.FileFunction,Plated,1,2,PTH
FMAT,2
INCH
; #@! TA.AperFunction,Plated,PTH,ViaDrill
T1C0.0157
; #@! TA.AperFunction,Plated,PTH,ComponentDrill
T2C0.1181
; #@! TA.AperFunction,Plated,PTH,ComponentDrill
T3C0.1200
%
G90
G05
T1
X1.3438Y-3.25
X2.0Y-3.2188
X3.125Y-3.1875
X3.7812Y-3.1562
X3.8438Y-1.6562
X3.9062Y-1.125
X3.9375Y-1.0625
X4.1562Y-3.2812
X4.5312Y-3.5938
X4.5625Y-2.9375
X4.5625Y-3.5625
X4.625Y-3.25
X4.7114Y-3.6176
X4.7188Y-3.0938
X4.7188Y-3.4345
X4.7812Y-3.2188
X5.0312Y-3.1562
X5.25Y-3.6875
X5.2875Y-3.025
X5.3125Y-3.75
X5.4062Y-3.375
X5.4375Y-2.9375
X6.3125Y-1.4062
X6.5312Y-3.0312
X6.7812Y-2.9688
X7.5938Y-3.0
X8.0938Y-2.3438
X8.0938Y-3.0938
X8.375Y-3.2188
X8.5938Y-1.6562
X8.5938Y-1.7188
X8.6562Y-1.0
X8.7188Y-1.125
X9.2188Y-3.25
X9.9688Y-3.2812
T2
X1.1625Y-1.2125
X1.1625Y-3.4625
X1.2562Y-1.9625
X1.35Y-2.7125
X1.4125Y-1.1125
X1.4125Y-3.3625
X1.5062Y-1.8625
X1.6Y-2.6125
X1.9125Y-1.2125
X2.0063Y-3.4625
X2.1Y-1.9625
X2.1625Y-1.1125
X2.2563Y-3.3625
X2.2875Y-2.7125
X2.35Y-1.8625
X2.5375Y-2.6125
X2.6625Y-1.2125
X2.85Y-1.9625
X2.9125Y-1.1125
X3.0375Y-2.7125
X3.1Y-1.8625
X3.2875Y-2.6125
X3.4125Y-1.2125
X3.6Y-1.9625
X3.6Y-3.4625
X3.6625Y-1.1125
X3.7875Y-2.7125
X3.85Y-1.8625
X3.85Y-3.3625
X4.0375Y-2.6125
X4.1625Y-1.2125
X4.35Y-1.9625
X4.4125Y-1.1125
X4.5375Y-2.7125
X4.6Y-1.8625
X4.7875Y-2.6125
X4.9125Y-1.2125
X5.1Y-1.9625
X5.1625Y-1.1125
X5.2875Y-2.7125
X5.35Y-1.8625
X5.5375Y-2.6125
X5.6625Y-1.2125
X5.7562Y-3.4625
X5.85Y-1.9625
X5.9125Y-1.1125
X6.0062Y-3.3625
X6.0375Y-2.7125
X6.1Y-1.8625
X6.2875Y-2.6125
X6.4125Y-1.2125
X6.6Y-1.9625
X6.6625Y-1.1125
X6.7875Y-2.7125
X6.85Y-1.8625
X7.0375Y-2.6125
X7.1625Y-1.2125
X7.2562Y-3.4625
X7.35Y-1.9625
X7.4125Y-1.1125
X7.5062Y-3.3625
X7.5375Y-2.7125
X7.6Y-1.8625
X7.7875Y-2.6125
X8.1937Y-1.2125
X8.3812Y-2.3375
X8.4437Y-1.1125
X8.475Y-3.4625
X8.6312Y-2.2375
X8.725Y-3.3625
X9.225Y-1.2125
X9.225Y-1.9625
X9.225Y-2.7125
X9.225Y-3.4625
X9.475Y-1.1125
X9.475Y-1.8625
X9.475Y-2.6125
X9.475Y-3.3625
X9.975Y-1.2125
X9.975Y-1.9625
X9.975Y-2.7125
X9.975Y-3.4625
X10.225Y-1.1125
X10.225Y-1.8625
X10.225Y-2.6125
X10.225Y-3.3625
T3
X3.0Y-3.8375
X4.5Y-3.8375
X5.4375Y-3.8375
X6.375Y-3.8375
X8.8063Y-1.9688
X8.8063Y-2.9062
T0
M30
