%TF.GenerationSoftware,KiCad,Pcbnew,7.0.6*%
%TF.CreationDate,2023-07-09T11:59:42+02:00*%
%TF.ProjectId,cursed-scandinavian-iso-van,63757273-6564-42d7-9363-616e64696e61,rev?*%
%TF.SameCoordinates,Original*%
%TF.FileFunction,Paste,Bot*%
%TF.FilePolarity,Positive*%
%FSLAX46Y46*%
G04 Gerber Fmt 4.6, Leading zero omitted, Abs format (unit mm)*
G04 Created by KiCad (PCBNEW 7.0.6) date 2023-07-09 11:59:42*
%MOMM*%
%LPD*%
G01*
G04 APERTURE LIST*
G04 Aperture macros list*
%AMRoundRect*
0 Rectangle with rounded corners*
0 $1 Rounding radius*
0 $2 $3 $4 $5 $6 $7 $8 $9 X,Y pos of 4 corners*
0 Add a 4 corners polygon primitive as box body*
4,1,4,$2,$3,$4,$5,$6,$7,$8,$9,$2,$3,0*
0 Add four circle primitives for the rounded corners*
1,1,$1+$1,$2,$3*
1,1,$1+$1,$4,$5*
1,1,$1+$1,$6,$7*
1,1,$1+$1,$8,$9*
0 Add four rect primitives between the rounded corners*
20,1,$1+$1,$2,$3,$4,$5,0*
20,1,$1+$1,$4,$5,$6,$7,0*
20,1,$1+$1,$6,$7,$8,$9,0*
20,1,$1+$1,$8,$9,$2,$3,0*%
G04 Aperture macros list end*
%ADD10RoundRect,0.250000X1.025000X1.000000X-1.025000X1.000000X-1.025000X-1.000000X1.025000X-1.000000X0*%
%ADD11R,1.400000X1.200000*%
%ADD12R,1.500000X0.550000*%
%ADD13R,0.550000X1.500000*%
%ADD14R,1.700000X1.000000*%
%ADD15RoundRect,0.250000X-0.450000X0.262500X-0.450000X-0.262500X0.450000X-0.262500X0.450000X0.262500X0*%
%ADD16RoundRect,0.250000X-0.262500X-0.450000X0.262500X-0.450000X0.262500X0.450000X-0.262500X0.450000X0*%
%ADD17RoundRect,0.250000X0.132583X-0.503814X0.503814X-0.132583X-0.132583X0.503814X-0.503814X0.132583X0*%
%ADD18RoundRect,0.150000X0.625000X-0.150000X0.625000X0.150000X-0.625000X0.150000X-0.625000X-0.150000X0*%
%ADD19RoundRect,0.250000X0.650000X-0.350000X0.650000X0.350000X-0.650000X0.350000X-0.650000X-0.350000X0*%
%ADD20RoundRect,0.250000X-0.375000X-0.625000X0.375000X-0.625000X0.375000X0.625000X-0.375000X0.625000X0*%
%ADD21RoundRect,0.225000X0.375000X-0.225000X0.375000X0.225000X-0.375000X0.225000X-0.375000X-0.225000X0*%
%ADD22RoundRect,0.250000X-0.475000X0.250000X-0.475000X-0.250000X0.475000X-0.250000X0.475000X0.250000X0*%
%ADD23RoundRect,0.250000X0.250000X0.475000X-0.250000X0.475000X-0.250000X-0.475000X0.250000X-0.475000X0*%
%ADD24RoundRect,0.250000X0.475000X-0.250000X0.475000X0.250000X-0.475000X0.250000X-0.475000X-0.250000X0*%
%ADD25RoundRect,0.250000X0.512652X0.159099X0.159099X0.512652X-0.512652X-0.159099X-0.159099X-0.512652X0*%
G04 APERTURE END LIST*
D10*
%TO.C,MX37*%
X47408750Y-87947500D03*
X60858750Y-85407500D03*
%TD*%
%TO.C,MX40*%
X180758750Y-87947500D03*
X194208750Y-85407500D03*
%TD*%
D11*
%TO.C,Y1*%
X128100000Y-77687501D03*
X125900000Y-77687501D03*
X125900000Y-75987501D03*
X128100000Y-75987501D03*
%TD*%
D12*
%TO.C,U1*%
X121268750Y-91962500D03*
X121268750Y-91162500D03*
X121268750Y-90362500D03*
X121268750Y-89562500D03*
X121268750Y-88762500D03*
X121268750Y-87962500D03*
X121268750Y-87162500D03*
X121268750Y-86362500D03*
X121268750Y-85562500D03*
X121268750Y-84762500D03*
X121268750Y-83962500D03*
D13*
X122968750Y-82262500D03*
X123768750Y-82262500D03*
X124568750Y-82262500D03*
X125368750Y-82262500D03*
X126168750Y-82262500D03*
X126968750Y-82262500D03*
X127768750Y-82262500D03*
X128568750Y-82262500D03*
X129368750Y-82262500D03*
X130168750Y-82262500D03*
X130968750Y-82262500D03*
D12*
X132668750Y-83962500D03*
X132668750Y-84762500D03*
X132668750Y-85562500D03*
X132668750Y-86362500D03*
X132668750Y-87162500D03*
X132668750Y-87962500D03*
X132668750Y-88762500D03*
X132668750Y-89562500D03*
X132668750Y-90362500D03*
X132668750Y-91162500D03*
X132668750Y-91962500D03*
D13*
X130968750Y-93662500D03*
X130168750Y-93662500D03*
X129368750Y-93662500D03*
X128568750Y-93662500D03*
X127768750Y-93662500D03*
X126968750Y-93662500D03*
X126168750Y-93662500D03*
X125368750Y-93662500D03*
X124568750Y-93662500D03*
X123768750Y-93662500D03*
X122968750Y-93662500D03*
%TD*%
D14*
%TO.C,SW1*%
X114249999Y-74493749D03*
X107949999Y-74493749D03*
X107949999Y-78293749D03*
X114249999Y-78293749D03*
%TD*%
D15*
%TO.C,R4*%
X135731250Y-91837500D03*
X135731250Y-93662500D03*
%TD*%
D16*
%TO.C,R3*%
X212606250Y-44450000D03*
X214431250Y-44450000D03*
%TD*%
%TO.C,R2*%
X212606250Y-41275000D03*
X214431250Y-41275000D03*
%TD*%
D17*
%TO.C,R1*%
X116829765Y-79226485D03*
X118120235Y-77936015D03*
%TD*%
D10*
%TO.C,MX43*%
X249815000Y-87947500D03*
X263265000Y-85407500D03*
%TD*%
%TO.C,MX42*%
X230765000Y-87947500D03*
X244215000Y-85407500D03*
%TD*%
%TO.C,MX41*%
X211715000Y-87947500D03*
X225165000Y-85407500D03*
%TD*%
%TO.C,MX39*%
X142658750Y-87947500D03*
X156108750Y-85407500D03*
%TD*%
%TO.C,MX38*%
X87890000Y-87947500D03*
X101340000Y-85407500D03*
%TD*%
%TO.C,MX36*%
X25977500Y-87947500D03*
X39427500Y-85407500D03*
%TD*%
%TO.C,MX35*%
X249815000Y-68897500D03*
X263265000Y-66357500D03*
%TD*%
%TO.C,MX34*%
X230765000Y-68897500D03*
X244215000Y-66357500D03*
%TD*%
%TO.C,MX33*%
X187902500Y-68897500D03*
X201352500Y-66357500D03*
%TD*%
%TO.C,MX32*%
X168852500Y-68897500D03*
X182302500Y-66357500D03*
%TD*%
%TO.C,MX31*%
X149802500Y-68897500D03*
X163252500Y-66357500D03*
%TD*%
%TO.C,MX30*%
X130752500Y-68897500D03*
X144202500Y-66357500D03*
%TD*%
%TO.C,MX29*%
X111702500Y-68897500D03*
X125152500Y-66357500D03*
%TD*%
%TO.C,MX28*%
X92652500Y-68897500D03*
X106102500Y-66357500D03*
%TD*%
%TO.C,MX27*%
X73602500Y-68897500D03*
X87052500Y-66357500D03*
%TD*%
%TO.C,MX26*%
X54552500Y-68897500D03*
X68002500Y-66357500D03*
%TD*%
%TO.C,MX25*%
X30740000Y-68897500D03*
X44190000Y-66357500D03*
%TD*%
%TO.C,MX24*%
X249815000Y-49847500D03*
X263265000Y-47307500D03*
%TD*%
%TO.C,MX23*%
X230765000Y-49847500D03*
X244215000Y-47307500D03*
%TD*%
%TO.C,MX22*%
X209333750Y-59372500D03*
X222783750Y-56832500D03*
%TD*%
%TO.C,MX21*%
X183140000Y-49847500D03*
X196590000Y-47307500D03*
%TD*%
%TO.C,MX20*%
X164090000Y-49847500D03*
X177540000Y-47307500D03*
%TD*%
%TO.C,MX19*%
X145040000Y-49847500D03*
X158490000Y-47307500D03*
%TD*%
%TO.C,MX18*%
X125990000Y-49847500D03*
X139440000Y-47307500D03*
%TD*%
%TO.C,MX17*%
X106940000Y-49847500D03*
X120390000Y-47307500D03*
%TD*%
%TO.C,MX16*%
X87890000Y-49847500D03*
X101340000Y-47307500D03*
%TD*%
%TO.C,MX15*%
X68840000Y-49847500D03*
X82290000Y-47307500D03*
%TD*%
%TO.C,MX14*%
X49790000Y-49847500D03*
X63240000Y-47307500D03*
%TD*%
%TO.C,MX13*%
X28358750Y-49847500D03*
X41808750Y-47307500D03*
%TD*%
%TO.C,MX12*%
X249815000Y-30797500D03*
X263265000Y-28257500D03*
%TD*%
%TO.C,MX11*%
X230765000Y-30797500D03*
X244215000Y-28257500D03*
%TD*%
%TO.C,MX10*%
X204571250Y-30797500D03*
X218021250Y-28257500D03*
%TD*%
%TO.C,MX9*%
X178377500Y-30797500D03*
X191827500Y-28257500D03*
%TD*%
%TO.C,MX8*%
X159327500Y-30797500D03*
X172777500Y-28257500D03*
%TD*%
%TO.C,MX7*%
X140277500Y-30797500D03*
X153727500Y-28257500D03*
%TD*%
%TO.C,MX6*%
X121227500Y-30797500D03*
X134677500Y-28257500D03*
%TD*%
%TO.C,MX5*%
X102177500Y-30797500D03*
X115627500Y-28257500D03*
%TD*%
%TO.C,MX4*%
X83127500Y-30797500D03*
X96577500Y-28257500D03*
%TD*%
%TO.C,MX3*%
X64077500Y-30797500D03*
X77527500Y-28257500D03*
%TD*%
%TO.C,MX2*%
X45027500Y-30797500D03*
X58477500Y-28257500D03*
%TD*%
%TO.C,MX1*%
X25977500Y-30797500D03*
X39427500Y-28257500D03*
%TD*%
D18*
%TO.C,J1*%
X209356250Y-44362500D03*
X209356250Y-43362500D03*
X209356250Y-42362500D03*
X209356250Y-41362500D03*
D19*
X205481250Y-40062500D03*
X205481250Y-45662500D03*
%TD*%
D20*
%TO.C,F1*%
X213518750Y-46831250D03*
X216318750Y-46831250D03*
%TD*%
D21*
%TO.C,D43*%
X260350000Y-92931250D03*
X260350000Y-89631250D03*
%TD*%
%TO.C,D42*%
X241300000Y-92931250D03*
X241300000Y-89631250D03*
%TD*%
%TO.C,D41*%
X222250000Y-92931250D03*
X222250000Y-89631250D03*
%TD*%
%TO.C,D40*%
X191293750Y-92931250D03*
X191293750Y-89631250D03*
%TD*%
%TO.C,D39*%
X153193750Y-92931250D03*
X153193750Y-89631250D03*
%TD*%
%TO.C,D38*%
X98425000Y-92931250D03*
X98425000Y-89631250D03*
%TD*%
%TO.C,D37*%
X57943750Y-92931250D03*
X57943750Y-89631250D03*
%TD*%
%TO.C,D36*%
X36512500Y-92931250D03*
X36512500Y-89631250D03*
%TD*%
%TO.C,D35*%
X260350000Y-73881250D03*
X260350000Y-70581250D03*
%TD*%
%TO.C,D34*%
X241300000Y-73881250D03*
X241300000Y-70581250D03*
%TD*%
%TO.C,D33*%
X198437500Y-73881250D03*
X198437500Y-70581250D03*
%TD*%
%TO.C,D32*%
X179387500Y-73881250D03*
X179387500Y-70581250D03*
%TD*%
%TO.C,D31*%
X160337500Y-73881250D03*
X160337500Y-70581250D03*
%TD*%
%TO.C,D30*%
X141287500Y-73881250D03*
X141287500Y-70581250D03*
%TD*%
%TO.C,D29*%
X122237500Y-73881250D03*
X122237500Y-70581250D03*
%TD*%
%TO.C,D28*%
X103187500Y-73881250D03*
X103187500Y-70581250D03*
%TD*%
%TO.C,D27*%
X84137500Y-73881250D03*
X84137500Y-70581250D03*
%TD*%
%TO.C,D26*%
X65087500Y-73881250D03*
X65087500Y-70581250D03*
%TD*%
%TO.C,D25*%
X41275000Y-73881250D03*
X41275000Y-70581250D03*
%TD*%
%TO.C,D24*%
X260350000Y-54831250D03*
X260350000Y-51531250D03*
%TD*%
%TO.C,D23*%
X241300000Y-54831250D03*
X241300000Y-51531250D03*
%TD*%
%TO.C,D22*%
X219868750Y-64356250D03*
X219868750Y-61056250D03*
%TD*%
%TO.C,D21*%
X193675000Y-54831250D03*
X193675000Y-51531250D03*
%TD*%
%TO.C,D20*%
X174625000Y-54831250D03*
X174625000Y-51531250D03*
%TD*%
%TO.C,D19*%
X155575000Y-54831250D03*
X155575000Y-51531250D03*
%TD*%
%TO.C,D18*%
X136525000Y-54831250D03*
X136525000Y-51531250D03*
%TD*%
%TO.C,D17*%
X117475000Y-54831250D03*
X117475000Y-51531250D03*
%TD*%
%TO.C,D16*%
X98425000Y-54831250D03*
X98425000Y-51531250D03*
%TD*%
%TO.C,D15*%
X79375000Y-54831250D03*
X79375000Y-51531250D03*
%TD*%
%TO.C,D14*%
X60325000Y-54831250D03*
X60325000Y-51531250D03*
%TD*%
%TO.C,D13*%
X38893750Y-54831250D03*
X38893750Y-51531250D03*
%TD*%
%TO.C,D12*%
X260350000Y-35781250D03*
X260350000Y-32481250D03*
%TD*%
%TO.C,D11*%
X241300000Y-35781250D03*
X241300000Y-32481250D03*
%TD*%
%TO.C,D10*%
X215106250Y-35781250D03*
X215106250Y-32481250D03*
%TD*%
%TO.C,D9*%
X188912500Y-35781250D03*
X188912500Y-32481250D03*
%TD*%
%TO.C,D8*%
X169862500Y-35781250D03*
X169862500Y-32481250D03*
%TD*%
%TO.C,D7*%
X150812500Y-35781250D03*
X150812500Y-32481250D03*
%TD*%
%TO.C,D6*%
X131762500Y-35781250D03*
X131762500Y-32481250D03*
%TD*%
%TO.C,D5*%
X112712500Y-35781250D03*
X112712500Y-32481250D03*
%TD*%
%TO.C,D4*%
X93662500Y-35781250D03*
X93662500Y-32481250D03*
%TD*%
%TO.C,D3*%
X74612500Y-35781250D03*
X74612500Y-32481250D03*
%TD*%
%TO.C,D2*%
X55562500Y-35781250D03*
X55562500Y-32481250D03*
%TD*%
%TO.C,D1*%
X36512500Y-35781250D03*
X36512500Y-32481250D03*
%TD*%
D22*
%TO.C,C7*%
X118268750Y-92712500D03*
X118268750Y-94612500D03*
%TD*%
D23*
%TO.C,C6*%
X131918750Y-96837500D03*
X130018750Y-96837500D03*
%TD*%
D24*
%TO.C,C5*%
X119062500Y-82550001D03*
X119062500Y-80650001D03*
%TD*%
D25*
%TO.C,C4*%
X136403001Y-84809251D03*
X135059499Y-83465749D03*
%TD*%
D24*
%TO.C,C3*%
X123031250Y-77787501D03*
X123031250Y-75887501D03*
%TD*%
D22*
%TO.C,C2*%
X130968750Y-75887501D03*
X130968750Y-77787501D03*
%TD*%
D23*
%TO.C,C1*%
X118581249Y-88106250D03*
X116681249Y-88106250D03*
%TD*%
M02*
