%TF.GenerationSoftware,KiCad,Pcbnew,7.0.6*%
%TF.CreationDate,2023-07-09T11:59:42+02:00*%
%TF.ProjectId,cursed-scandinavian-iso-van,63757273-6564-42d7-9363-616e64696e61,rev?*%
%TF.SameCoordinates,Original*%
%TF.FileFunction,Soldermask,Bot*%
%TF.FilePolarity,Negative*%
%FSLAX46Y46*%
G04 Gerber Fmt 4.6, Leading zero omitted, Abs format (unit mm)*
G04 Created by KiCad (PCBNEW 7.0.6) date 2023-07-09 11:59:42*
%MOMM*%
%LPD*%
G01*
G04 APERTURE LIST*
G04 Aperture macros list*
%AMRoundRect*
0 Rectangle with rounded corners*
0 $1 Rounding radius*
0 $2 $3 $4 $5 $6 $7 $8 $9 X,Y pos of 4 corners*
0 Add a 4 corners polygon primitive as box body*
4,1,4,$2,$3,$4,$5,$6,$7,$8,$9,$2,$3,0*
0 Add four circle primitives for the rounded corners*
1,1,$1+$1,$2,$3*
1,1,$1+$1,$4,$5*
1,1,$1+$1,$6,$7*
1,1,$1+$1,$8,$9*
0 Add four rect primitives between the rounded corners*
20,1,$1+$1,$2,$3,$4,$5,0*
20,1,$1+$1,$4,$5,$6,$7,0*
20,1,$1+$1,$6,$7,$8,$9,0*
20,1,$1+$1,$8,$9,$2,$3,0*%
G04 Aperture macros list end*
%ADD10C,3.987800*%
%ADD11C,4.000000*%
%ADD12C,1.750000*%
%ADD13C,3.300000*%
%ADD14RoundRect,0.250000X1.025000X1.000000X-1.025000X1.000000X-1.025000X-1.000000X1.025000X-1.000000X0*%
%ADD15R,1.400000X1.200000*%
%ADD16R,1.500000X0.550000*%
%ADD17R,0.550000X1.500000*%
%ADD18R,1.700000X1.000000*%
%ADD19RoundRect,0.250000X-0.450000X0.262500X-0.450000X-0.262500X0.450000X-0.262500X0.450000X0.262500X0*%
%ADD20RoundRect,0.250000X-0.262500X-0.450000X0.262500X-0.450000X0.262500X0.450000X-0.262500X0.450000X0*%
%ADD21RoundRect,0.250000X0.132583X-0.503814X0.503814X-0.132583X-0.132583X0.503814X-0.503814X0.132583X0*%
%ADD22RoundRect,0.150000X0.625000X-0.150000X0.625000X0.150000X-0.625000X0.150000X-0.625000X-0.150000X0*%
%ADD23RoundRect,0.250000X0.650000X-0.350000X0.650000X0.350000X-0.650000X0.350000X-0.650000X-0.350000X0*%
%ADD24RoundRect,0.250000X-0.375000X-0.625000X0.375000X-0.625000X0.375000X0.625000X-0.375000X0.625000X0*%
%ADD25RoundRect,0.225000X0.375000X-0.225000X0.375000X0.225000X-0.375000X0.225000X-0.375000X-0.225000X0*%
%ADD26RoundRect,0.250000X-0.475000X0.250000X-0.475000X-0.250000X0.475000X-0.250000X0.475000X0.250000X0*%
%ADD27RoundRect,0.250000X0.250000X0.475000X-0.250000X0.475000X-0.250000X-0.475000X0.250000X-0.475000X0*%
%ADD28RoundRect,0.250000X0.475000X-0.250000X0.475000X0.250000X-0.475000X0.250000X-0.475000X-0.250000X0*%
%ADD29RoundRect,0.250000X0.512652X0.159099X0.159099X0.512652X-0.512652X-0.159099X-0.159099X-0.512652X0*%
G04 APERTURE END LIST*
D10*
%TO.C,S3*%
X208438750Y-50006250D03*
X208438750Y-73818750D03*
D11*
X223678750Y-50006250D03*
X223678750Y-73818750D03*
%TD*%
D12*
%TO.C,MX37*%
X59848750Y-90487500D03*
D10*
X54768750Y-90487500D03*
D12*
X49688750Y-90487500D03*
D13*
X50958750Y-87947500D03*
D14*
X47408750Y-87947500D03*
X60858750Y-85407500D03*
D13*
X57308750Y-85407500D03*
%TD*%
D12*
%TO.C,MX40*%
X193198750Y-90487500D03*
D10*
X188118750Y-90487500D03*
D12*
X183038750Y-90487500D03*
D13*
X184308750Y-87947500D03*
D14*
X180758750Y-87947500D03*
X194208750Y-85407500D03*
D13*
X190658750Y-85407500D03*
%TD*%
D10*
%TO.C,S2*%
X138112500Y-82232500D03*
D11*
X161925000Y-97472500D03*
D10*
X161925000Y-82232500D03*
D11*
X138112500Y-97472500D03*
%TD*%
D10*
%TO.C,S1*%
X76200000Y-82232500D03*
D11*
X76200000Y-97472500D03*
D10*
X114300000Y-82232500D03*
D11*
X114300000Y-97472500D03*
%TD*%
D15*
%TO.C,Y1*%
X128100000Y-77687501D03*
X125900000Y-77687501D03*
X125900000Y-75987501D03*
X128100000Y-75987501D03*
%TD*%
D16*
%TO.C,U1*%
X121268750Y-91962500D03*
X121268750Y-91162500D03*
X121268750Y-90362500D03*
X121268750Y-89562500D03*
X121268750Y-88762500D03*
X121268750Y-87962500D03*
X121268750Y-87162500D03*
X121268750Y-86362500D03*
X121268750Y-85562500D03*
X121268750Y-84762500D03*
X121268750Y-83962500D03*
D17*
X122968750Y-82262500D03*
X123768750Y-82262500D03*
X124568750Y-82262500D03*
X125368750Y-82262500D03*
X126168750Y-82262500D03*
X126968750Y-82262500D03*
X127768750Y-82262500D03*
X128568750Y-82262500D03*
X129368750Y-82262500D03*
X130168750Y-82262500D03*
X130968750Y-82262500D03*
D16*
X132668750Y-83962500D03*
X132668750Y-84762500D03*
X132668750Y-85562500D03*
X132668750Y-86362500D03*
X132668750Y-87162500D03*
X132668750Y-87962500D03*
X132668750Y-88762500D03*
X132668750Y-89562500D03*
X132668750Y-90362500D03*
X132668750Y-91162500D03*
X132668750Y-91962500D03*
D17*
X130968750Y-93662500D03*
X130168750Y-93662500D03*
X129368750Y-93662500D03*
X128568750Y-93662500D03*
X127768750Y-93662500D03*
X126968750Y-93662500D03*
X126168750Y-93662500D03*
X125368750Y-93662500D03*
X124568750Y-93662500D03*
X123768750Y-93662500D03*
X122968750Y-93662500D03*
%TD*%
D18*
%TO.C,SW1*%
X114249999Y-74493749D03*
X107949999Y-74493749D03*
X107949999Y-78293749D03*
X114249999Y-78293749D03*
%TD*%
D19*
%TO.C,R4*%
X135731250Y-91837500D03*
X135731250Y-93662500D03*
%TD*%
D20*
%TO.C,R3*%
X212606250Y-44450000D03*
X214431250Y-44450000D03*
%TD*%
%TO.C,R2*%
X212606250Y-41275000D03*
X214431250Y-41275000D03*
%TD*%
D21*
%TO.C,R1*%
X116829765Y-79226485D03*
X118120235Y-77936015D03*
%TD*%
D12*
%TO.C,MX43*%
X262255000Y-90487500D03*
D10*
X257175000Y-90487500D03*
D12*
X252095000Y-90487500D03*
D13*
X253365000Y-87947500D03*
D14*
X249815000Y-87947500D03*
X263265000Y-85407500D03*
D13*
X259715000Y-85407500D03*
%TD*%
D12*
%TO.C,MX42*%
X243205000Y-90487500D03*
D10*
X238125000Y-90487500D03*
D12*
X233045000Y-90487500D03*
D13*
X234315000Y-87947500D03*
D14*
X230765000Y-87947500D03*
X244215000Y-85407500D03*
D13*
X240665000Y-85407500D03*
%TD*%
D12*
%TO.C,MX41*%
X224155000Y-90487500D03*
D10*
X219075000Y-90487500D03*
D12*
X213995000Y-90487500D03*
D13*
X215265000Y-87947500D03*
D14*
X211715000Y-87947500D03*
X225165000Y-85407500D03*
D13*
X221615000Y-85407500D03*
%TD*%
D12*
%TO.C,MX39*%
X155098750Y-90487500D03*
D10*
X150018750Y-90487500D03*
D12*
X144938750Y-90487500D03*
D13*
X146208750Y-87947500D03*
D14*
X142658750Y-87947500D03*
X156108750Y-85407500D03*
D13*
X152558750Y-85407500D03*
%TD*%
D12*
%TO.C,MX38*%
X100330000Y-90487500D03*
D10*
X95250000Y-90487500D03*
D12*
X90170000Y-90487500D03*
D13*
X91440000Y-87947500D03*
D14*
X87890000Y-87947500D03*
X101340000Y-85407500D03*
D13*
X97790000Y-85407500D03*
%TD*%
D12*
%TO.C,MX36*%
X38417500Y-90487500D03*
D10*
X33337500Y-90487500D03*
D12*
X28257500Y-90487500D03*
D13*
X29527500Y-87947500D03*
D14*
X25977500Y-87947500D03*
X39427500Y-85407500D03*
D13*
X35877500Y-85407500D03*
%TD*%
D12*
%TO.C,MX35*%
X262255000Y-71437500D03*
D10*
X257175000Y-71437500D03*
D12*
X252095000Y-71437500D03*
D13*
X253365000Y-68897500D03*
D14*
X249815000Y-68897500D03*
X263265000Y-66357500D03*
D13*
X259715000Y-66357500D03*
%TD*%
D12*
%TO.C,MX34*%
X243205000Y-71437500D03*
D10*
X238125000Y-71437500D03*
D12*
X233045000Y-71437500D03*
D13*
X234315000Y-68897500D03*
D14*
X230765000Y-68897500D03*
X244215000Y-66357500D03*
D13*
X240665000Y-66357500D03*
%TD*%
D12*
%TO.C,MX33*%
X200342500Y-71437500D03*
D10*
X195262500Y-71437500D03*
D12*
X190182500Y-71437500D03*
D13*
X191452500Y-68897500D03*
D14*
X187902500Y-68897500D03*
X201352500Y-66357500D03*
D13*
X197802500Y-66357500D03*
%TD*%
D12*
%TO.C,MX32*%
X181292500Y-71437500D03*
D10*
X176212500Y-71437500D03*
D12*
X171132500Y-71437500D03*
D13*
X172402500Y-68897500D03*
D14*
X168852500Y-68897500D03*
X182302500Y-66357500D03*
D13*
X178752500Y-66357500D03*
%TD*%
D12*
%TO.C,MX31*%
X162242500Y-71437500D03*
D10*
X157162500Y-71437500D03*
D12*
X152082500Y-71437500D03*
D13*
X153352500Y-68897500D03*
D14*
X149802500Y-68897500D03*
X163252500Y-66357500D03*
D13*
X159702500Y-66357500D03*
%TD*%
D12*
%TO.C,MX30*%
X143192500Y-71437500D03*
D10*
X138112500Y-71437500D03*
D12*
X133032500Y-71437500D03*
D13*
X134302500Y-68897500D03*
D14*
X130752500Y-68897500D03*
X144202500Y-66357500D03*
D13*
X140652500Y-66357500D03*
%TD*%
D12*
%TO.C,MX29*%
X124142500Y-71437500D03*
D10*
X119062500Y-71437500D03*
D12*
X113982500Y-71437500D03*
D13*
X115252500Y-68897500D03*
D14*
X111702500Y-68897500D03*
X125152500Y-66357500D03*
D13*
X121602500Y-66357500D03*
%TD*%
D12*
%TO.C,MX28*%
X105092500Y-71437500D03*
D10*
X100012500Y-71437500D03*
D12*
X94932500Y-71437500D03*
D13*
X96202500Y-68897500D03*
D14*
X92652500Y-68897500D03*
X106102500Y-66357500D03*
D13*
X102552500Y-66357500D03*
%TD*%
D12*
%TO.C,MX27*%
X86042500Y-71437500D03*
D10*
X80962500Y-71437500D03*
D12*
X75882500Y-71437500D03*
D13*
X77152500Y-68897500D03*
D14*
X73602500Y-68897500D03*
X87052500Y-66357500D03*
D13*
X83502500Y-66357500D03*
%TD*%
D12*
%TO.C,MX26*%
X66992500Y-71437500D03*
D10*
X61912500Y-71437500D03*
D12*
X56832500Y-71437500D03*
D13*
X58102500Y-68897500D03*
D14*
X54552500Y-68897500D03*
X68002500Y-66357500D03*
D13*
X64452500Y-66357500D03*
%TD*%
D12*
%TO.C,MX25*%
X43180000Y-71437500D03*
D10*
X38100000Y-71437500D03*
D12*
X33020000Y-71437500D03*
D13*
X34290000Y-68897500D03*
D14*
X30740000Y-68897500D03*
X44190000Y-66357500D03*
D13*
X40640000Y-66357500D03*
%TD*%
D12*
%TO.C,MX24*%
X262255000Y-52387500D03*
D10*
X257175000Y-52387500D03*
D12*
X252095000Y-52387500D03*
D13*
X253365000Y-49847500D03*
D14*
X249815000Y-49847500D03*
X263265000Y-47307500D03*
D13*
X259715000Y-47307500D03*
%TD*%
D12*
%TO.C,MX23*%
X243205000Y-52387500D03*
D10*
X238125000Y-52387500D03*
D12*
X233045000Y-52387500D03*
D13*
X234315000Y-49847500D03*
D14*
X230765000Y-49847500D03*
X244215000Y-47307500D03*
D13*
X240665000Y-47307500D03*
%TD*%
D12*
%TO.C,MX22*%
X221773750Y-61912500D03*
D10*
X216693750Y-61912500D03*
D12*
X211613750Y-61912500D03*
D13*
X212883750Y-59372500D03*
D14*
X209333750Y-59372500D03*
X222783750Y-56832500D03*
D13*
X219233750Y-56832500D03*
%TD*%
D12*
%TO.C,MX21*%
X195580000Y-52387500D03*
D10*
X190500000Y-52387500D03*
D12*
X185420000Y-52387500D03*
D13*
X186690000Y-49847500D03*
D14*
X183140000Y-49847500D03*
X196590000Y-47307500D03*
D13*
X193040000Y-47307500D03*
%TD*%
D12*
%TO.C,MX20*%
X176530000Y-52387500D03*
D10*
X171450000Y-52387500D03*
D12*
X166370000Y-52387500D03*
D13*
X167640000Y-49847500D03*
D14*
X164090000Y-49847500D03*
X177540000Y-47307500D03*
D13*
X173990000Y-47307500D03*
%TD*%
D12*
%TO.C,MX19*%
X157480000Y-52387500D03*
D10*
X152400000Y-52387500D03*
D12*
X147320000Y-52387500D03*
D13*
X148590000Y-49847500D03*
D14*
X145040000Y-49847500D03*
X158490000Y-47307500D03*
D13*
X154940000Y-47307500D03*
%TD*%
D12*
%TO.C,MX18*%
X138430000Y-52387500D03*
D10*
X133350000Y-52387500D03*
D12*
X128270000Y-52387500D03*
D13*
X129540000Y-49847500D03*
D14*
X125990000Y-49847500D03*
X139440000Y-47307500D03*
D13*
X135890000Y-47307500D03*
%TD*%
D12*
%TO.C,MX17*%
X119380000Y-52387500D03*
D10*
X114300000Y-52387500D03*
D12*
X109220000Y-52387500D03*
D13*
X110490000Y-49847500D03*
D14*
X106940000Y-49847500D03*
X120390000Y-47307500D03*
D13*
X116840000Y-47307500D03*
%TD*%
D12*
%TO.C,MX16*%
X100330000Y-52387500D03*
D10*
X95250000Y-52387500D03*
D12*
X90170000Y-52387500D03*
D13*
X91440000Y-49847500D03*
D14*
X87890000Y-49847500D03*
X101340000Y-47307500D03*
D13*
X97790000Y-47307500D03*
%TD*%
D12*
%TO.C,MX15*%
X81280000Y-52387500D03*
D10*
X76200000Y-52387500D03*
D12*
X71120000Y-52387500D03*
D13*
X72390000Y-49847500D03*
D14*
X68840000Y-49847500D03*
X82290000Y-47307500D03*
D13*
X78740000Y-47307500D03*
%TD*%
D12*
%TO.C,MX14*%
X62230000Y-52387500D03*
D10*
X57150000Y-52387500D03*
D12*
X52070000Y-52387500D03*
D13*
X53340000Y-49847500D03*
D14*
X49790000Y-49847500D03*
X63240000Y-47307500D03*
D13*
X59690000Y-47307500D03*
%TD*%
D12*
%TO.C,MX13*%
X40798750Y-52387500D03*
D10*
X35718750Y-52387500D03*
D12*
X30638750Y-52387500D03*
D13*
X31908750Y-49847500D03*
D14*
X28358750Y-49847500D03*
X41808750Y-47307500D03*
D13*
X38258750Y-47307500D03*
%TD*%
D12*
%TO.C,MX12*%
X262255000Y-33337500D03*
D10*
X257175000Y-33337500D03*
D12*
X252095000Y-33337500D03*
D13*
X253365000Y-30797500D03*
D14*
X249815000Y-30797500D03*
X263265000Y-28257500D03*
D13*
X259715000Y-28257500D03*
%TD*%
D12*
%TO.C,MX11*%
X243205000Y-33337500D03*
D10*
X238125000Y-33337500D03*
D12*
X233045000Y-33337500D03*
D13*
X234315000Y-30797500D03*
D14*
X230765000Y-30797500D03*
X244215000Y-28257500D03*
D13*
X240665000Y-28257500D03*
%TD*%
D12*
%TO.C,MX10*%
X217011250Y-33337500D03*
D10*
X211931250Y-33337500D03*
D12*
X206851250Y-33337500D03*
D13*
X208121250Y-30797500D03*
D14*
X204571250Y-30797500D03*
X218021250Y-28257500D03*
D13*
X214471250Y-28257500D03*
%TD*%
D12*
%TO.C,MX9*%
X190817500Y-33337500D03*
D10*
X185737500Y-33337500D03*
D12*
X180657500Y-33337500D03*
D13*
X181927500Y-30797500D03*
D14*
X178377500Y-30797500D03*
X191827500Y-28257500D03*
D13*
X188277500Y-28257500D03*
%TD*%
D12*
%TO.C,MX8*%
X171767500Y-33337500D03*
D10*
X166687500Y-33337500D03*
D12*
X161607500Y-33337500D03*
D13*
X162877500Y-30797500D03*
D14*
X159327500Y-30797500D03*
X172777500Y-28257500D03*
D13*
X169227500Y-28257500D03*
%TD*%
D12*
%TO.C,MX7*%
X152717500Y-33337500D03*
D10*
X147637500Y-33337500D03*
D12*
X142557500Y-33337500D03*
D13*
X143827500Y-30797500D03*
D14*
X140277500Y-30797500D03*
X153727500Y-28257500D03*
D13*
X150177500Y-28257500D03*
%TD*%
D12*
%TO.C,MX6*%
X133667500Y-33337500D03*
D10*
X128587500Y-33337500D03*
D12*
X123507500Y-33337500D03*
D13*
X124777500Y-30797500D03*
D14*
X121227500Y-30797500D03*
X134677500Y-28257500D03*
D13*
X131127500Y-28257500D03*
%TD*%
D12*
%TO.C,MX5*%
X114617500Y-33337500D03*
D10*
X109537500Y-33337500D03*
D12*
X104457500Y-33337500D03*
D13*
X105727500Y-30797500D03*
D14*
X102177500Y-30797500D03*
X115627500Y-28257500D03*
D13*
X112077500Y-28257500D03*
%TD*%
D12*
%TO.C,MX4*%
X95567500Y-33337500D03*
D10*
X90487500Y-33337500D03*
D12*
X85407500Y-33337500D03*
D13*
X86677500Y-30797500D03*
D14*
X83127500Y-30797500D03*
X96577500Y-28257500D03*
D13*
X93027500Y-28257500D03*
%TD*%
D12*
%TO.C,MX3*%
X76517500Y-33337500D03*
D10*
X71437500Y-33337500D03*
D12*
X66357500Y-33337500D03*
D13*
X67627500Y-30797500D03*
D14*
X64077500Y-30797500D03*
X77527500Y-28257500D03*
D13*
X73977500Y-28257500D03*
%TD*%
D12*
%TO.C,MX2*%
X57467500Y-33337500D03*
D10*
X52387500Y-33337500D03*
D12*
X47307500Y-33337500D03*
D13*
X48577500Y-30797500D03*
D14*
X45027500Y-30797500D03*
X58477500Y-28257500D03*
D13*
X54927500Y-28257500D03*
%TD*%
D12*
%TO.C,MX1*%
X38417500Y-33337500D03*
D10*
X33337500Y-33337500D03*
D12*
X28257500Y-33337500D03*
D13*
X29527500Y-30797500D03*
D14*
X25977500Y-30797500D03*
X39427500Y-28257500D03*
D13*
X35877500Y-28257500D03*
%TD*%
D22*
%TO.C,J1*%
X209356250Y-44362500D03*
X209356250Y-43362500D03*
X209356250Y-42362500D03*
X209356250Y-41362500D03*
D23*
X205481250Y-40062500D03*
X205481250Y-45662500D03*
%TD*%
D24*
%TO.C,F1*%
X213518750Y-46831250D03*
X216318750Y-46831250D03*
%TD*%
D25*
%TO.C,D43*%
X260350000Y-92931250D03*
X260350000Y-89631250D03*
%TD*%
%TO.C,D42*%
X241300000Y-92931250D03*
X241300000Y-89631250D03*
%TD*%
%TO.C,D41*%
X222250000Y-92931250D03*
X222250000Y-89631250D03*
%TD*%
%TO.C,D40*%
X191293750Y-92931250D03*
X191293750Y-89631250D03*
%TD*%
%TO.C,D39*%
X153193750Y-92931250D03*
X153193750Y-89631250D03*
%TD*%
%TO.C,D38*%
X98425000Y-92931250D03*
X98425000Y-89631250D03*
%TD*%
%TO.C,D37*%
X57943750Y-92931250D03*
X57943750Y-89631250D03*
%TD*%
%TO.C,D36*%
X36512500Y-92931250D03*
X36512500Y-89631250D03*
%TD*%
%TO.C,D35*%
X260350000Y-73881250D03*
X260350000Y-70581250D03*
%TD*%
%TO.C,D34*%
X241300000Y-73881250D03*
X241300000Y-70581250D03*
%TD*%
%TO.C,D33*%
X198437500Y-73881250D03*
X198437500Y-70581250D03*
%TD*%
%TO.C,D32*%
X179387500Y-73881250D03*
X179387500Y-70581250D03*
%TD*%
%TO.C,D31*%
X160337500Y-73881250D03*
X160337500Y-70581250D03*
%TD*%
%TO.C,D30*%
X141287500Y-73881250D03*
X141287500Y-70581250D03*
%TD*%
%TO.C,D29*%
X122237500Y-73881250D03*
X122237500Y-70581250D03*
%TD*%
%TO.C,D28*%
X103187500Y-73881250D03*
X103187500Y-70581250D03*
%TD*%
%TO.C,D27*%
X84137500Y-73881250D03*
X84137500Y-70581250D03*
%TD*%
%TO.C,D26*%
X65087500Y-73881250D03*
X65087500Y-70581250D03*
%TD*%
%TO.C,D25*%
X41275000Y-73881250D03*
X41275000Y-70581250D03*
%TD*%
%TO.C,D24*%
X260350000Y-54831250D03*
X260350000Y-51531250D03*
%TD*%
%TO.C,D23*%
X241300000Y-54831250D03*
X241300000Y-51531250D03*
%TD*%
%TO.C,D22*%
X219868750Y-64356250D03*
X219868750Y-61056250D03*
%TD*%
%TO.C,D21*%
X193675000Y-54831250D03*
X193675000Y-51531250D03*
%TD*%
%TO.C,D20*%
X174625000Y-54831250D03*
X174625000Y-51531250D03*
%TD*%
%TO.C,D19*%
X155575000Y-54831250D03*
X155575000Y-51531250D03*
%TD*%
%TO.C,D18*%
X136525000Y-54831250D03*
X136525000Y-51531250D03*
%TD*%
%TO.C,D17*%
X117475000Y-54831250D03*
X117475000Y-51531250D03*
%TD*%
%TO.C,D16*%
X98425000Y-54831250D03*
X98425000Y-51531250D03*
%TD*%
%TO.C,D15*%
X79375000Y-54831250D03*
X79375000Y-51531250D03*
%TD*%
%TO.C,D14*%
X60325000Y-54831250D03*
X60325000Y-51531250D03*
%TD*%
%TO.C,D13*%
X38893750Y-54831250D03*
X38893750Y-51531250D03*
%TD*%
%TO.C,D12*%
X260350000Y-35781250D03*
X260350000Y-32481250D03*
%TD*%
%TO.C,D11*%
X241300000Y-35781250D03*
X241300000Y-32481250D03*
%TD*%
%TO.C,D10*%
X215106250Y-35781250D03*
X215106250Y-32481250D03*
%TD*%
%TO.C,D9*%
X188912500Y-35781250D03*
X188912500Y-32481250D03*
%TD*%
%TO.C,D8*%
X169862500Y-35781250D03*
X169862500Y-32481250D03*
%TD*%
%TO.C,D7*%
X150812500Y-35781250D03*
X150812500Y-32481250D03*
%TD*%
%TO.C,D6*%
X131762500Y-35781250D03*
X131762500Y-32481250D03*
%TD*%
%TO.C,D5*%
X112712500Y-35781250D03*
X112712500Y-32481250D03*
%TD*%
%TO.C,D4*%
X93662500Y-35781250D03*
X93662500Y-32481250D03*
%TD*%
%TO.C,D3*%
X74612500Y-35781250D03*
X74612500Y-32481250D03*
%TD*%
%TO.C,D2*%
X55562500Y-35781250D03*
X55562500Y-32481250D03*
%TD*%
%TO.C,D1*%
X36512500Y-35781250D03*
X36512500Y-32481250D03*
%TD*%
D26*
%TO.C,C7*%
X118268750Y-92712500D03*
X118268750Y-94612500D03*
%TD*%
D27*
%TO.C,C6*%
X131918750Y-96837500D03*
X130018750Y-96837500D03*
%TD*%
D28*
%TO.C,C5*%
X119062500Y-82550001D03*
X119062500Y-80650001D03*
%TD*%
D29*
%TO.C,C4*%
X136403001Y-84809251D03*
X135059499Y-83465749D03*
%TD*%
D28*
%TO.C,C3*%
X123031250Y-77787501D03*
X123031250Y-75887501D03*
%TD*%
D26*
%TO.C,C2*%
X130968750Y-75887501D03*
X130968750Y-77787501D03*
%TD*%
D27*
%TO.C,C1*%
X118581249Y-88106250D03*
X116681249Y-88106250D03*
%TD*%
M02*
